<?xml version="1.0" encoding="UTF-8" standalone="no"?>
<svg
   xmlns:dc="http://purl.org/dc/elements/1.1/"
   xmlns:cc="http://creativecommons.org/ns#"
   xmlns:rdf="http://www.w3.org/1999/02/22-rdf-syntax-ns#"
   xmlns:svg="http://www.w3.org/2000/svg"
   xmlns="http://www.w3.org/2000/svg"
   xmlns:sodipodi="http://sodipodi.sourceforge.net/DTD/sodipodi-0.dtd"
   xmlns:inkscape="http://www.inkscape.org/namespaces/inkscape"
   width="103.61663"
   height="33.306"
   viewBox="0 0 103.61663 33.306"
   version="1.1"
   id="svg13"
   sodipodi:docname="oliver_logo_path.svg"
   inkscape:version="0.92.4 (5da689c313, 2019-01-14)">
  <metadata
     id="metadata17">
    <rdf:RDF>
      <cc:Work
         rdf:about="">
        <dc:format>image/svg+xml</dc:format>
        <dc:type
           rdf:resource="http://purl.org/dc/dcmitype/StillImage" />
        <dc:title />
      </cc:Work>
    </rdf:RDF>
  </metadata>
  <sodipodi:namedview
     pagecolor="#ffffff"
     bordercolor="#666666"
     borderopacity="1"
     objecttolerance="10"
     gridtolerance="10"
     guidetolerance="10"
     inkscape:pageopacity="0"
     inkscape:pageshadow="2"
     inkscape:window-width="705"
     inkscape:window-height="1168"
     id="namedview15"
     showgrid="false"
     inkscape:zoom="5.3158382"
     inkscape:cx="34.954809"
     inkscape:cy="1.946271"
     inkscape:window-x="1209"
     inkscape:window-y="0"
     inkscape:window-maximized="0"
     inkscape:current-layer="svg13" />
  <defs
     id="defs5">
    <clipPath
       id="clip-Logo">
      <rect
         width="141"
         height="54"
         id="rect2"
         x="0"
         y="0" />
    </clipPath>
  </defs>
  <g
     aria-label="Oliver"
     style="font-weight:800;font-size:42px;font-family:Canela-Black, Canela;fill:#ffffff;fill-opacity:1"
     id="Oliver"
     transform="translate(-9.26,-8.324)">
    <path
       d="m 25.052,41.63 c 7.896,0 15.876,-7.056 15.876,-15.96 0,-8.904 -7.98,-16.044 -15.876,-16.044 -7.896,0 -15.792,7.14 -15.792,16.044 0,8.904 7.896,15.96 15.792,15.96 z m 0,-0.84 c -7.224,0 -10.458,-6.51 -10.458,-15.12 0,-8.652 3.234,-15.204 10.458,-15.204 7.266,0 10.542,6.552 10.542,15.204 0,8.736 -3.276,15.12 -10.542,15.12 z"
       style="fill:#ffffff;fill-opacity:1"
       id="path827"
       inkscape:connector-curvature="0" />
    <path
       d="M 44.181031,40.916 V 41 h 6.09 v -0.084 c -0.63,-1.134 -0.966,-2.646 -0.966,-5.796 V 8.324 l -6.09,2.226 v 0.084 c 1.008,1.134 1.89,2.688 1.89,5.418 v 19.11 c 0,3.15 -0.378,4.578 -0.924,5.754 z"
       style="fill:#ffffff;fill-opacity:1"
       id="path829"
       inkscape:connector-curvature="0" />
    <path
       d="m 59.322687,13.364 c 0,-1.386 -1.134,-2.562 -2.52,-2.562 -1.385999,0 -2.519999,1.176 -2.519999,2.562 0,1.386 1.134,2.52 2.519999,2.52 1.386,0 2.52,-1.134 2.52,-2.52 z M 53.946688,40.916 V 41 h 6.089999 v -0.084 c -0.881999,-2.31 -0.924,-4.536 -0.924,-8.106 V 20.126 l -6.089999,2.226 v 0.294 c 1.007999,1.134 1.889999,2.73 1.889999,5.418 v 4.788 c 0,3.654 -0.419999,5.754 -0.965999,8.064 z"
       style="fill:#ffffff;fill-opacity:1"
       id="path831"
       inkscape:connector-curvature="0" />
    <path
       d="m 64.176312,25.922 6.048,15.498 h 0.672 l 5.880001,-15.204 c 1.007999,-2.52 1.637999,-3.57 3.107999,-5.166 v -0.084 h -4.494 v 0.084 c 0.546,0.882 1.302,3.066 0.294001,5.754 l -3.276001,8.568 -3.696,-9.744 c -0.798,-2.142 -0.461999,-3.78 0,-4.578 v -0.084 h -7.182 v 0.084 c 0.882,1.008 1.512001,2.142 2.646,4.872 z"
       style="fill:#ffffff;fill-opacity:1"
       id="path833"
       inkscape:connector-curvature="0" />
    <path
       d="m 97.855063,35.414 -0.252001,-0.168 c -1.47,1.806 -3.36,2.814 -5.922,2.814 -4.41,0 -7.349999,-2.814 -7.349999,-8.736 v -0.798 h 13.481999 c 0.210001,-3.696 -3.108,-8.19 -8.022,-8.19 -4.619999,0 -9.702,4.284 -9.702,11.004 0,5.88 3.864001,10.29 9.45,10.29 4.368,0 7.182001,-2.73 8.316001,-6.216 z m -8.232,-14.322 c 2.646,0 3.906,1.89 3.906,6.09 v 0.462 l -9.114,0.21 c 0.336,-3.822 2.015999,-6.762 5.208,-6.762 z"
       style="fill:#ffffff;fill-opacity:1"
       id="path835"
       inkscape:connector-curvature="0" />
    <path
       d="m 101.03262,41 h 6.09001 v -0.084 c -0.84001,-2.31 -0.924,-4.452 -0.924,-8.106 v -6.72 c 0.966,-1.302 2.01599,-1.89 2.68799,-1.89 0.88201,0 2.982,0.588 3.738,1.26 h 0.16801 l 0.084,-5.124 c -2.73,0 -4.998,2.898 -6.678,4.914 h -0.168 v -5.124 l -5.922,2.226 v 0.084 c 1.008,1.134 1.89,2.646 1.89,5.46 v 4.956 c 0,3.738 -0.16801,5.712 -0.96601,8.064 z"
       style="fill:#ffffff;fill-opacity:1"
       id="path837"
       inkscape:connector-curvature="0" />
  </g>
</svg>
