<svg width="170" height="140" viewBox="0 0 170 140" fill="none" xmlns="http://www.w3.org/2000/svg">
<rect x="52.5" y="0.5" width="101" height="44" rx="1.5" fill="#F0F0F0" stroke="#47546C"/>
<path fill-rule="evenodd" clip-rule="evenodd" d="M99.8197 10.5143L85.8614 21.4845L86.471 15.0599L73.5078 25.2729L75.2853 17.1269L61.0128 31.1728L61 31.4129L68.6588 27.3259L68.0072 35.4821L80.9844 25.2805L80.6259 31.8436L99.7286 16.9427L99.8209 10.5143H99.8197Z" fill="#FF3068"/>
<path fill-rule="evenodd" clip-rule="evenodd" d="M107.338 15.1625H119.882H139.867H144.442C144.891 15.1625 144.893 13.7714 144.442 13.7714H131.898H111.915H107.338C106.888 13.7714 106.887 15.1625 107.338 15.1625" fill="#3F536D"/>
<path fill-rule="evenodd" clip-rule="evenodd" d="M107.338 26.7435H119.882H139.867H144.442C144.891 26.7435 144.893 25.3524 144.442 25.3524H131.898H111.915H107.338C106.888 25.3524 106.887 26.7435 107.338 26.7435" fill="#3F536D"/>
<path fill-rule="evenodd" clip-rule="evenodd" d="M107.338 20.953H130.288H133.574C134.024 20.953 134.024 19.5619 133.574 19.5619H110.623H107.338C106.888 19.5619 106.887 20.953 107.338 20.953" fill="#3F536D"/>
<path fill-rule="evenodd" clip-rule="evenodd" d="M107.338 32.5339H130.288H133.574C134.024 32.5339 134.024 31.1428 133.574 31.1428H110.623H107.338C106.888 31.1428 106.887 32.5339 107.338 32.5339" fill="#3F536D"/>
<rect x="139.5" y="72.5" width="30" height="37" rx="1.5" fill="white" stroke="#47546C"/>
<path fill-rule="evenodd" clip-rule="evenodd" d="M164.999 78L157.449 83.7119L157.778 80.3668L150.766 85.6844L151.728 81.443L144.007 88.7563L144 88.8813L148.143 86.7533L147.79 91L154.811 85.6883L154.617 89.1055L164.95 81.3471L165 78H164.999Z" fill="#FF7700"/>
<path fill-rule="evenodd" clip-rule="evenodd" d="M145.179 96H151.819H162.4H164.821C165.059 96 165.06 95 164.821 95H158.181H147.602H145.179C144.941 95 144.94 96 145.179 96" fill="#3F536D"/>
<path fill-rule="evenodd" clip-rule="evenodd" d="M145.179 102H151.819H162.4H164.821C165.059 102 165.06 101 164.821 101H158.181H147.602H145.179C144.941 101 144.94 102 145.179 102" fill="#3F536D"/>
<path fill-rule="evenodd" clip-rule="evenodd" d="M145.188 99H157.98H159.812C160.063 99 160.063 98 159.812 98H147.019H145.188C144.938 98 144.937 99 145.188 99" fill="#3F536D"/>
<path fill-rule="evenodd" clip-rule="evenodd" d="M145.188 105H157.98H159.812C160.063 105 160.063 104 159.812 104H147.019H145.188C144.938 104 144.937 105 145.188 105" fill="#3F536D"/>
<rect x="145" y="110" width="20" height="30" fill="#47546C"/>
<rect x="52.5" y="0.5" width="101" height="44" rx="1.5" fill="white" stroke="#47546C"/>
<path fill-rule="evenodd" clip-rule="evenodd" d="M85.8614 21.4845L86.471 15.0599L73.5078 25.2729L75.2853 17.1269L61.0128 31.1728L61 31.4129L68.6588 27.3259L68.0072 35.4821L80.9844 25.2805L80.6259 31.8436L99.7286 16.9427L99.8209 10.5143L85.8614 21.4845Z" fill="#FF7700"/>
<path fill-rule="evenodd" clip-rule="evenodd" d="M107.338 15.1625H119.882H139.867H144.442C144.891 15.1625 144.893 13.7714 144.442 13.7714H131.898H111.915H107.338C106.888 13.7714 106.887 15.1625 107.338 15.1625" fill="#3F536D"/>
<path fill-rule="evenodd" clip-rule="evenodd" d="M107.338 26.7435H119.882H139.867H144.442C144.891 26.7435 144.893 25.3524 144.442 25.3524H131.898H111.915H107.338C106.888 25.3524 106.887 26.7435 107.338 26.7435" fill="#3F536D"/>
<path fill-rule="evenodd" clip-rule="evenodd" d="M107.338 20.953H130.288H133.574C134.024 20.953 134.024 19.5619 133.574 19.5619H110.623H107.338C106.888 19.5619 106.887 20.953 107.338 20.953" fill="#3F536D"/>
<path fill-rule="evenodd" clip-rule="evenodd" d="M107.338 32.5339H130.288H133.574C134.024 32.5339 134.024 31.1428 133.574 31.1428H110.623H107.338C106.888 31.1428 106.887 32.5339 107.338 32.5339" fill="#3F536D"/>
<rect x="96" y="44" width="16" height="54" fill="#47546C"/>
<mask id="mask0" mask-type="alpha" maskUnits="userSpaceOnUse" x="0" y="97" width="131" height="38">
<path fill-rule="evenodd" clip-rule="evenodd" d="M0.30835 97.1254H130.772V134.864H0.30835V97.1254Z" fill="white"/>
</mask>
<g mask="url(#mask0)">
<path fill-rule="evenodd" clip-rule="evenodd" d="M118.229 134.864L117.472 134.842C119.247 130.156 117.764 124.862 113.811 121.775C109.858 118.689 104.355 118.528 100.227 121.377C96.0988 124.227 94.3074 129.425 95.8042 134.206L95.319 134.192H95.3144C94.9377 134.191 91.5288 134.18 87.7964 134.18C85.5 134.18 83.5408 134.184 81.9715 134.192C78.7832 134.209 64.6007 134.225 53.3397 134.225C47.642 134.225 37.8657 134.221 36.4049 134.192C36.302 134.19 36.1737 134.187 36.0231 134.181C36.2594 133.233 36.378 132.259 36.3775 131.282C36.3775 124.684 31.0211 119.336 24.4128 119.336C17.8044 119.336 12.4475 124.684 12.4475 131.282C12.4475 131.79 12.4795 132.297 12.5433 132.801L11.6849 132.723L8.32778 132.418C5.99892 132.153 3.68983 131.734 1.41776 131.161C1.28137 131.115 1.02582 130.785 0.731732 130.281C0.548689 130.001 0.405702 129.697 0.30835 129.377C0.469083 129.102 0.655168 128.843 0.864578 128.603C0.835676 128.403 0.773817 128.208 0.681535 128.027C0.509647 127.654 0.489872 123.857 0.493928 122.86C0.498999 121.789 0.861029 121.378 0.864578 121.374C0.850888 121.28 0.734775 120.447 0.864578 120.208C0.93455 120.079 1.50295 119.201 2.10481 118.273L2.10735 118.269C2.69957 117.354 3.31158 116.409 3.55141 116.021C3.68933 115.796 3.78465 115.215 3.44949 113.728C3.2487 112.836 2.98605 112.034 2.98352 112.026L3.24515 111.778C3.17214 111.714 3.12904 111.623 3.12651 111.527C3.10166 111.344 3.12651 110.996 3.39169 110.375C3.78668 109.599 4.23744 108.853 4.74043 108.142C5.3499 107.224 5.8757 106.431 5.73931 106.337C5.4006 106.158 5.04719 106.011 4.68212 105.896L4.82916 105.416C4.84843 105.416 6.93087 105.327 10.0284 104.879C11.8325 104.618 13.6117 104.287 15.3164 103.897C17.3496 103.437 19.3545 102.859 21.3198 102.164C23.6172 101.374 25.9633 100.731 28.3429 100.238C30.7513 99.7161 33.4676 99.2325 36.412 98.8001C41.0738 98.1148 46.4515 97.5514 50.7979 97.2913C52.6359 97.181 54.5698 97.1256 56.5462 97.1256C59.9196 97.1185 63.291 97.2902 66.6466 97.6398C69.9464 97.9588 73.2128 98.5669 76.4067 99.455C82.1388 101.127 90.6065 105.959 95.1572 108.554C96.8928 109.544 98.0398 110.198 98.3435 110.288C98.8881 110.427 99.4509 110.485 100.013 110.46H100.311H100.319H100.642C101.472 110.456 102.301 110.495 103.126 110.576C105.961 110.832 108.778 111.253 111.564 111.835C114 112.383 116.401 113.08 118.751 113.923C121.768 114.981 124.371 116.104 126.083 117.085C126.883 117.531 127.613 118.091 128.252 118.747C128.693 119.203 129.06 119.724 129.342 120.293C129.599 120.783 129.745 121.325 129.768 121.878L130.764 123.559L130.493 129.234C130.507 129.245 130.824 129.521 130.764 130.483C130.754 130.998 130.667 131.508 130.506 131.997C130.336 132.503 129.937 132.898 129.429 133.065C128.295 133.451 118.329 134.851 118.229 134.864" fill="#47546C"/>
</g>
<path fill-rule="evenodd" clip-rule="evenodd" d="M55.7909 99.4172C55.7909 99.4172 49.9872 99.5244 45.3098 100.137C40.6328 100.749 36.8553 101.568 36.8553 101.568L37.1017 108.504L56.4328 109.628L55.7909 99.4172Z" fill="white"/>
<path fill-rule="evenodd" clip-rule="evenodd" d="M58.5678 99.304L61.1269 109.843L86.1546 111.288L85.2673 106.115C85.2673 106.115 80.6664 103.757 78.7969 103.052C76.9274 102.347 74.7035 101.354 71.6283 100.608C68.6986 99.8771 65.7019 99.4488 62.6845 99.3309C59.8146 99.2405 58.5678 99.304 58.5678 99.304" fill="white"/>
<path fill-rule="evenodd" clip-rule="evenodd" d="M35.8448 108.354L35.6303 101.574L32.2732 102.311C31.5947 103.426 30.9802 104.579 30.4326 105.763C30.1071 106.477 29.8637 107.224 29.7075 107.992L35.8448 108.354Z" fill="white"/>
<path fill-rule="evenodd" clip-rule="evenodd" d="M106.87 120.718C112.171 120.718 116.469 125.008 116.469 130.3C116.469 135.593 112.171 139.883 106.87 139.883C101.57 139.883 97.2724 135.593 97.2724 130.3C97.2724 125.008 101.57 120.718 106.87 120.718" fill="#47546C"/>
<path fill-rule="evenodd" clip-rule="evenodd" d="M24.3358 120.718C29.6364 120.718 33.9341 125.008 33.9341 130.3C33.9341 135.593 29.6364 139.883 24.3358 139.883C19.0351 139.883 14.7379 135.593 14.7379 130.3C14.7379 125.008 19.0351 120.718 24.3358 120.718" fill="#47546C"/>
<path fill-rule="evenodd" clip-rule="evenodd" d="M106.943 123.684C110.645 123.684 113.646 126.68 113.646 130.377C113.646 134.072 110.645 137.068 106.943 137.068C103.241 137.068 100.239 134.072 100.239 130.377C100.239 126.68 103.241 123.684 106.943 123.684" fill="white"/>
<path fill-rule="evenodd" clip-rule="evenodd" d="M24.4081 123.684C28.11 123.684 31.1112 126.68 31.1112 130.377C31.1112 134.072 28.11 137.068 24.4081 137.068C20.7062 137.068 17.705 134.072 17.705 130.377C17.705 126.68 20.7062 123.684 24.4081 123.684" fill="white"/>
<path fill-rule="evenodd" clip-rule="evenodd" d="M30.7169 80.543H73.0587C73.616 80.543 74.0677 80.9957 74.0677 81.554V94.8843C74.0677 95.4426 73.616 95.8953 73.0587 95.8953H30.7169C30.1592 95.8953 29.7079 95.4426 29.7079 94.8843V81.554C29.7079 80.9957 30.1592 80.543 30.7169 80.543" fill="white"/>
<path d="M30.7169 80.543H73.0587C73.616 80.543 74.0677 80.9957 74.0677 81.554V94.8843C74.0677 95.4426 73.616 95.8953 73.0587 95.8953H30.7169C30.1592 95.8953 29.7079 95.4426 29.7079 94.8843V81.554C29.7079 80.9957 30.1592 80.543 30.7169 80.543" stroke="#47546C"/>
<path fill-rule="evenodd" clip-rule="evenodd" d="M44.0572 87.6735L44.3218 85.1044L38.6936 89.1884L39.4654 85.9309L33.2688 91.5477L33.2632 91.6438L36.5884 90.0094L36.3055 93.271L41.9397 89.1915L41.7841 91.816L50.0778 85.8573L50.1179 83.2866L44.0572 87.6735Z" fill="#FF7700"/>
<path fill-rule="evenodd" clip-rule="evenodd" d="M53.6702 85.1451H59.1163H67.7934H69.7795C69.9747 85.1451 69.9752 84.5888 69.7795 84.5888H64.3333H55.6573H53.6702C53.4749 84.5888 53.4744 85.1451 53.6702 85.1451" fill="#3F536D"/>
<path fill-rule="evenodd" clip-rule="evenodd" d="M53.6702 89.8479H59.1163H67.7934H69.7795C69.9747 89.8479 69.9752 89.2916 69.7795 89.2916H64.3333H55.6573H53.6702C53.4749 89.2916 53.4744 89.8479 53.6702 89.8479" fill="#3F536D"/>
<path fill-rule="evenodd" clip-rule="evenodd" d="M53.6702 87.4962H63.6346H65.0609C65.2566 87.4962 65.2566 86.9399 65.0609 86.9399H55.0965H53.6702C53.4749 86.9399 53.4744 87.4962 53.6702 87.4962" fill="#3F536D"/>
<path fill-rule="evenodd" clip-rule="evenodd" d="M53.6702 92.1995H63.6346H65.0609C65.2566 92.1995 65.2566 91.6432 65.0609 91.6432H55.0965H53.6702C53.4749 91.6432 53.4744 92.1995 53.6702 92.1995" fill="#3F536D"/>
<path fill-rule="evenodd" clip-rule="evenodd" d="M62.4786 97.1717L66.6003 97.5319L66.3007 96.0469H62.7575L62.4786 97.1717Z" fill="#47546C"/>
<path fill-rule="evenodd" clip-rule="evenodd" d="M35.7765 98.7876L40.5437 98.1353L39.6802 95.777H36.46L35.7765 98.7876Z" fill="#47546C"/>
</svg>
