<svg width="79" height="83" viewBox="0 0 79 83" fill="none" xmlns="http://www.w3.org/2000/svg">
<mask id="mask0" mask-type="alpha" maskUnits="userSpaceOnUse" x="2" y="17" width="67" height="66">
<path fill-rule="evenodd" clip-rule="evenodd" d="M2.85916 17.2448H68.3176V82.8148H2.85916V17.2448Z" fill="white"/>
</mask>
<g mask="url(#mask0)">
<path fill-rule="evenodd" clip-rule="evenodd" d="M66.3112 50.9701C66.1846 58.994 62.8001 66.6418 57.0318 72.1582C54.8988 70.2776 52.643 68.7731 50.135 67.5194C51.6398 62.7552 52.7821 57.0156 52.7821 50.8723L52.7684 49.0895C52.643 42.9462 51.7639 37.3045 50.2604 32.5403C51.389 32.0388 52.3909 31.4119 53.3953 30.785L52.2668 29.1552C51.389 29.7821 50.3858 30.2836 49.508 30.785C47.7525 26.0209 45.3699 22.2597 42.4858 20.003C44.743 20.5045 46.8747 21.2567 48.8811 22.2597L48.2541 19.7522C44.2401 18.1224 40.1033 17.2448 35.7144 17.2448H35.589H35.4623C29.9461 17.2448 24.6795 18.6239 19.9144 21.2567L20.4147 23.2627C22.9227 21.7582 25.808 20.6298 28.6922 20.003C25.808 22.385 23.4255 26.0209 21.6687 30.785C20.7922 30.2836 19.9144 29.9074 19.1607 29.2806L18.2842 31.0358C19.1607 31.5373 20.0398 32.1642 21.0417 32.5403C19.5382 37.3045 18.5338 42.9462 18.5338 49.0895V50.9701C18.6604 57.1134 19.5382 62.7552 21.0417 67.5194C18.5338 68.7731 16.2779 70.2776 14.1449 72.1582C8.37788 66.6418 4.99216 58.994 4.86676 50.9701V49.0895C4.99216 45.4537 5.74454 41.8179 7.12391 38.4328L5.74454 36.6776C3.86359 40.9403 2.85916 45.4537 2.85916 50.0925C2.85916 59.2448 6.74772 68.0209 13.3937 74.1642C19.4128 79.6806 27.3115 82.8149 35.589 82.8149C43.8652 82.8149 51.6398 79.8059 57.7842 74.1642C64.5557 68.0209 68.3176 59.2448 68.3176 50.0925C68.3176 46.7074 67.816 43.3224 66.8115 40.188L65.1826 41.8179C65.935 44.2 66.3112 46.5821 66.4366 49.0895L66.3112 50.9701ZM34.7112 34.0448C30.8239 33.9194 26.9366 33.0418 23.4255 31.5373C26.0576 24.5164 30.0715 19.8776 34.7112 19.2507H35.6517H36.5922C41.2318 19.8776 45.2445 24.5164 47.8779 31.5373C44.2401 33.1671 40.4782 33.9194 36.5922 34.0448H34.7112ZM50.8874 50.9701C50.762 56.7373 49.883 62.1283 48.5049 66.7671C44.743 65.1373 40.7303 64.2597 36.5922 64.1343H34.7112C30.5731 64.2597 26.5604 65.1373 22.7985 66.7671C21.2937 62.2537 20.4147 56.8627 20.4147 50.9701V49.0895C20.5414 43.3224 21.4191 37.9313 22.7985 33.2925C26.5604 34.9224 30.5731 35.8 34.7112 35.9253H36.5922C40.7303 35.8 44.743 34.9224 48.5049 33.2925C50.0096 37.8059 50.8874 43.197 50.8874 49.0895V50.9701ZM49.508 69.2746C51.6398 70.403 53.7715 71.7821 55.6525 73.4119C51.8906 76.6716 47.375 78.9283 42.4858 80.0567C45.3699 77.6746 47.7525 74.0388 49.508 69.2746V69.2746ZM34.7112 80.8089C30.0715 80.1821 26.0576 75.5433 23.4255 68.5224C26.9366 67.0179 30.6985 66.1403 34.7112 66.0149H36.5922C40.4782 66.1403 44.3668 67.0179 47.8779 68.5224C45.2445 75.5433 41.1052 80.1821 36.5922 80.8089H34.7112ZM28.6922 80.0567C23.8017 78.9283 19.4128 76.6716 15.5255 73.4119C17.4064 71.7821 19.5382 70.403 21.6687 69.2746C23.4255 74.0388 25.9334 77.6746 28.6922 80.0567V80.0567Z" fill="white"/>
</g>
<path fill-rule="evenodd" clip-rule="evenodd" d="M64.3286 20.9376C60.5892 20.9376 57.5571 17.906 57.5571 14.1674C57.5571 10.4288 60.5892 7.39726 64.3286 7.39726C68.0679 7.39726 71.1 10.4288 71.1 14.1674C71.1 17.906 68.0679 20.9376 64.3286 20.9376M64.3286 0.000244141C56.6794 0.000244141 50.4095 6.14353 50.4095 13.9167C50.4095 22.5674 61.4444 35.2301 64.3286 38.3644C67.2127 35.2301 78.2476 22.442 78.2476 13.9167C78.2476 6.2689 71.9778 0.000244141 64.3286 0.000244141" fill="#FF8E00"/>
<path fill-rule="evenodd" clip-rule="evenodd" d="M8.40208 26.0854C5.90417 26.0854 3.88027 24.0607 3.88027 21.5645C3.88027 19.0671 5.90417 17.0435 8.40208 17.0435C10.8987 17.0435 12.9226 19.0671 12.9226 21.5645C12.9226 24.0607 10.8987 26.0854 8.40208 26.0854M8.40208 12.1615C3.76239 12.1615 0.000488281 15.9227 0.000488281 20.5615C0.000488281 25.5764 6.27033 32.9734 8.40208 35.3555C10.5326 32.9734 16.8024 25.5764 16.8024 20.5615C16.8024 15.9227 13.0405 12.1615 8.40208 12.1615" fill="#FF8E00"/>
</svg>
