<svg width="81" height="78" viewBox="0 0 81 78" fill="none" xmlns="http://www.w3.org/2000/svg">
<mask id="mask0" mask-type="alpha" maskUnits="userSpaceOnUse" x="0" y="46" width="81" height="32">
<path fill-rule="evenodd" clip-rule="evenodd" d="M0.000495911 46.8927H80.7295V77.9154H0.000495911V46.8927Z" fill="white"/>
</mask>
<g mask="url(#mask0)">
<path fill-rule="evenodd" clip-rule="evenodd" d="M77.0128 60.0993L48.3513 75.0501C46.2328 76.1701 43.7405 76.296 41.4974 75.5472L24.9236 70.0665H19.1913V51.8751H26.1697C27.9143 51.8751 29.7836 52.2501 31.4023 52.9976L40.7485 57.3583H53.0867C54.4562 57.3583 55.4531 58.4796 55.4531 59.8501C55.4531 61.2193 54.3328 62.3419 52.9608 62.3419H38.5066H38.3808C37.01 62.5911 34.5177 63.7111 34.5177 66.3288H36.3869C36.3869 64.8337 38.2562 64.3341 38.6313 64.2107H52.9608C53.7097 64.2107 54.3328 63.9616 54.9559 63.7111L74.8943 54.8665C76.2639 54.2435 78.0097 54.9898 78.5069 56.3616C78.882 57.1091 79.2559 58.9779 77.0128 60.0993M80.3762 55.7386C79.3793 53.3714 76.6377 52.2501 74.2713 53.2468L57.199 60.7222C57.199 60.473 57.3223 60.2238 57.3223 59.9734C57.3223 57.6075 55.4531 55.7386 53.0867 55.6128H52.9608H41.1223L32.15 51.3779C30.2808 50.5058 28.1636 50.0062 26.1697 50.0062H19.1913V46.8927H0.000495911V48.7616H17.322V73.1812H3.48848V75.0501H19.1913V71.9353H24.4251L40.8743 77.416C41.9946 77.7911 43.1174 77.9157 44.2377 77.9157C45.9836 77.9157 47.6023 77.5419 49.2223 76.6698L77.8839 61.7189C81.3743 60.0993 80.8759 56.8587 80.3762 55.7386" fill="#FCFCFC"/>
</g>
<mask id="mask1" mask-type="alpha" maskUnits="userSpaceOnUse" x="0" y="0" width="81" height="78">
<path fill-rule="evenodd" clip-rule="evenodd" d="M0 77.9153H80.7296V0.000488281H0V77.9153Z" fill="white"/>
</mask>
<g mask="url(#mask1)">
<path fill-rule="evenodd" clip-rule="evenodd" d="M12.2123 69.6923H14.0815V67.8235H12.2123V69.6923Z" fill="white"/>
<path fill-rule="evenodd" clip-rule="evenodd" d="M8.22462 69.6923H10.0938V67.8235H8.22462V69.6923Z" fill="white"/>
<path fill-rule="evenodd" clip-rule="evenodd" d="M18.9905 22.8448C18.9905 22.0788 18.8379 21.4716 18.5304 21.0255C18.2229 20.5771 17.6865 20.1404 16.9237 19.7107C15.1168 18.926 13.7867 18.0922 12.9356 17.2071C12.0846 16.322 11.6579 15.0492 11.6579 13.3888C11.6579 11.8754 12.0918 10.626 12.9642 9.64044C13.8343 8.6549 15 8.07572 16.4613 7.9029V5H18.4732V7.9426C19.8605 8.1995 20.9619 8.87676 21.7771 9.9744C22.5924 11.0744 23 12.5036 23 14.2645H19.0334C19.0334 13.1973 18.8689 12.3775 18.5447 11.8007C18.2181 11.2262 17.789 10.9389 17.2574 10.9389C16.7092 10.9389 16.2992 11.1678 16.0298 11.6232C15.7604 12.0809 15.6246 12.6741 15.6246 13.4028C15.6246 14.0964 15.7747 14.6662 16.0775 15.1123C16.3802 15.5607 16.9285 16.0021 17.7199 16.4411C19.5077 17.2702 20.8284 18.132 21.6794 19.0264C22.5304 19.9209 22.9571 21.1843 22.9571 22.8168C22.9571 24.3768 22.528 25.6333 21.6722 26.5884C20.8164 27.5413 19.6603 28.1041 18.2086 28.2769V31H16.1824V28.2769C14.683 28.0948 13.4458 27.4782 12.4684 26.4296C11.4911 25.381 11 23.8443 11 21.8195H14.969C14.969 23.0503 15.1716 23.9331 15.5816 24.4656C15.9917 25.0004 16.528 25.2666 17.1883 25.2666C17.7747 25.2666 18.2229 25.0424 18.5304 24.5963C18.8379 24.1503 18.9905 23.5664 18.9905 22.8448" fill="#FF8E00"/>
<path fill-rule="evenodd" clip-rule="evenodd" d="M28.8647 16.3309H30.8097C31.504 16.3309 32.0206 16.0916 32.3573 15.6085C32.6962 15.1254 32.8645 14.4532 32.8645 13.5873C32.8645 12.8285 32.6962 12.2133 32.3573 11.7393C32.0206 11.2676 31.5367 11.0306 30.9055 11.0306C30.3936 11.0306 29.9541 11.2403 29.5847 11.6596C29.213 12.0788 29.0283 12.628 29.0283 13.3048H25.2622L25.2342 13.225C25.1898 11.6869 25.7064 10.4336 26.7888 9.45836C27.8711 8.48536 29.206 8 30.7956 8C32.6051 8 34.0474 8.48308 35.1251 9.44696C36.2028 10.4131 36.7405 11.7781 36.7405 13.5395C36.7405 14.4213 36.5091 15.2394 36.0415 15.9913C35.5763 16.7433 34.9381 17.3266 34.1246 17.7459C35.055 18.1196 35.768 18.7007 36.2613 19.4891C36.7545 20.2753 37 21.2141 37 22.2987C37 24.0693 36.4179 25.4638 35.2537 26.4778C34.0895 27.4919 32.6004 28 30.7816 28C29.1849 28 27.8104 27.5215 26.6602 26.5644C25.5077 25.6074 24.956 24.2402 25.0027 22.4582L25.0285 22.3785H28.8109C28.8109 23.1259 29.0096 23.7457 29.4117 24.2356C29.8138 24.7255 30.3117 24.9694 30.9055 24.9694C31.5811 24.9694 32.1188 24.7233 32.5162 24.2288C32.9113 23.7343 33.11 23.0735 33.11 22.2463C33.11 21.2141 32.916 20.4598 32.5279 19.9836C32.1398 19.5073 31.5671 19.2681 30.8097 19.2681H28.8647V16.3309Z" fill="#FF8E00"/>
<path fill-rule="evenodd" clip-rule="evenodd" d="M40 28H44V24H40V28Z" fill="#FF8E00"/>
<path fill-rule="evenodd" clip-rule="evenodd" d="M52.8876 18.7747C53.3541 18.7747 53.7679 18.6653 54.1292 18.4466C54.488 18.2301 54.7895 17.9339 55.0311 17.5603V15.3434C55.0311 13.9376 54.8445 12.8735 54.4713 12.1536C54.0981 11.4313 53.6077 11.0895 53 11.126H52.9163C52.3445 11.0895 51.878 11.4564 51.5144 12.2265C51.1483 12.9966 50.9665 13.9011 50.9665 14.9424C50.9665 16.1089 51.1316 17.0385 51.4569 17.7334C51.7847 18.4283 52.2608 18.7747 52.8876 18.7747M52.2416 24.9697C53.0455 24.9697 53.7129 24.6051 54.2392 23.8738C54.7679 23.1447 55.0311 22.1217 55.0311 20.8047V20.0551C54.6579 20.5723 54.2225 20.9642 53.7225 21.2308C53.2225 21.4974 52.6914 21.6318 52.1316 21.6318C50.5335 21.6318 49.2775 21.0326 48.366 19.8364C47.4545 18.638 47 17.0089 47 14.9424C47 12.9943 47.5622 11.3493 48.689 10.0096C49.8158 8.66986 51.2392 8 52.9569 8C54.7416 8 56.1962 8.68808 57.3182 10.0643C58.4378 11.4381 59 13.3543 59 15.8104V20.5632C59 22.8417 58.3612 24.6507 57.0861 25.9904C55.811 27.3301 54.1962 28 52.2416 28C51.6627 28 51.0502 27.9294 50.4067 27.7858C49.7608 27.6446 49.1627 27.4395 48.6124 27.1729L49.0598 24.3409C49.5742 24.555 50.0813 24.7122 50.5813 24.8148C51.0813 24.9173 51.6364 24.9697 52.2416 24.9697" fill="#FF8E00"/>
<path fill-rule="evenodd" clip-rule="evenodd" d="M66.8876 18.7747C67.3541 18.7747 67.7679 18.6653 68.1292 18.4466C68.488 18.2301 68.7895 17.9339 69.0311 17.5603V15.3434C69.0311 13.9376 68.8445 12.8735 68.4713 12.1536C68.0981 11.4313 67.6077 11.0895 67 11.126H66.9163C66.3445 11.0895 65.878 11.4564 65.5144 12.2265C65.1483 12.9966 64.9665 13.9011 64.9665 14.9424C64.9665 16.1089 65.1316 17.0385 65.4569 17.7334C65.7847 18.4283 66.2608 18.7747 66.8876 18.7747M66.2416 24.9697C67.0455 24.9697 67.7129 24.6051 68.2392 23.8738C68.7679 23.1447 69.0311 22.1217 69.0311 20.8047V20.0551C68.6579 20.5723 68.2225 20.9642 67.7225 21.2308C67.2225 21.4974 66.6914 21.6318 66.1316 21.6318C64.5335 21.6318 63.2775 21.0326 62.366 19.8364C61.4545 18.638 61 17.0089 61 14.9424C61 12.9943 61.5622 11.3493 62.689 10.0096C63.8158 8.66986 65.2392 8 66.9569 8C68.7416 8 70.1962 8.68808 71.3182 10.0643C72.4378 11.4381 73 13.3543 73 15.8104V20.5632C73 22.8417 72.3612 24.6507 71.0861 25.9904C69.811 27.3301 68.1962 28 66.2416 28C65.6627 28 65.0502 27.9294 64.4067 27.7858C63.7608 27.6446 63.1627 27.4395 62.6124 27.1729L63.0598 24.3409C63.5742 24.555 64.0813 24.7122 64.5813 24.8148C65.0813 24.9173 65.6364 24.9697 66.2416 24.9697" fill="#FF8E00"/>
</g>
</svg>
