<svg width="162" height="142" viewBox="0 0 162 142" fill="none" xmlns="http://www.w3.org/2000/svg">
<path fill-rule="evenodd" clip-rule="evenodd" d="M135.497 80.9915C141.449 80.9915 147.401 80.9905 153.353 80.9931C153.961 80.9934 154.56 80.9256 155.15 80.7688C158.6 79.8535 160.998 76.5198 160.999 72.6333C161 65.2182 160.999 57.8034 161 50.3884C161 49.813 160.948 49.2451 160.847 48.6806C160.162 44.8401 157.024 42.0034 153.433 42.0024C141.476 41.9983 129.519 41.9995 117.562 42.0058C117.147 42.006 116.726 42.049 116.316 42.1245C112.691 42.7922 110.004 46.2594 110.002 50.2712C109.998 57.754 110.001 65.2371 110.001 72.7199C110.001 74.1288 110.298 75.4645 110.946 76.6789C112.431 79.461 114.655 80.9636 117.615 80.9809C123.576 81.0164 129.537 80.9915 135.497 80.9915" fill="white"/>
<path d="M135.497 80.9915C141.449 80.9915 147.401 80.9905 153.353 80.9931C153.961 80.9934 154.56 80.9256 155.15 80.7688C158.6 79.8535 160.998 76.5198 160.999 72.6333C161 65.2182 160.999 57.8034 161 50.3884C161 49.813 160.948 49.2451 160.847 48.6806C160.162 44.8401 157.024 42.0034 153.433 42.0024C141.476 41.9983 129.519 41.9995 117.562 42.0058C117.147 42.006 116.726 42.049 116.316 42.1245C112.691 42.7922 110.004 46.2594 110.002 50.2712C109.998 57.754 110.001 65.2371 110.001 72.7199C110.001 74.1288 110.298 75.4645 110.946 76.6789C112.431 79.461 114.655 80.9636 117.615 80.9809C123.576 81.0164 129.537 80.9915 135.497 80.9915" stroke="#FF7700"/>
<path fill-rule="evenodd" clip-rule="evenodd" d="M130 72V51.021C130.015 51.0127 130.023 51.0067 130.031 51.0038C130.039 51.0012 130.05 50.9981 130.056 51.0015C130.097 51.0231 130.139 51.0432 130.178 51.0698C135.106 54.5273 140.033 57.985 145 61.4701C139.997 64.9821 135.022 68.4747 130 72" fill="#FF7700"/>
<mask id="mask0" mask-type="alpha" maskUnits="userSpaceOnUse" x="65" y="22" width="30" height="30">
<path fill-rule="evenodd" clip-rule="evenodd" d="M65 22.0543H94.9513V52H65V22.0543Z" fill="white"/>
</mask>
<g mask="url(#mask0)">
<path fill-rule="evenodd" clip-rule="evenodd" d="M79.9846 24.3585C77.862 24.3585 75.739 24.3535 73.6163 24.3605C72.514 24.3641 71.47 24.6295 70.525 25.1968C68.4353 26.4515 67.3356 28.3135 67.319 30.7495C67.29 34.9335 67.311 39.1178 67.311 43.3018C67.311 43.7058 67.3493 44.1055 67.4223 44.5028C67.9676 47.4671 70.5786 49.6791 73.5936 49.6901C77.7506 49.7051 81.908 49.6941 86.0653 49.6945C86.2916 49.6945 86.5176 49.6925 86.744 49.6755C87.8316 49.5941 88.8436 49.2728 89.7463 48.6625C91.6553 47.3718 92.6343 45.5588 92.6433 43.2558C92.6593 39.0988 92.6476 34.9415 92.6483 30.7841C92.6483 30.2525 92.5873 29.7288 92.4646 29.2115C91.8003 26.4091 89.2216 24.3628 86.3413 24.3588C84.2223 24.3561 82.1036 24.3585 79.9846 24.3585M94.9513 30.1851V43.8901C94.9113 43.9071 94.9296 43.9431 94.9276 43.9701C94.878 44.5558 94.7826 45.1338 94.614 45.6975C93.9523 47.9108 92.6293 49.6151 90.6483 50.7995C89.3453 51.5785 87.925 51.9881 86.4076 51.9928C82.1396 52.0055 77.8713 51.9975 73.603 51.9975C73.2533 51.9975 72.905 51.9701 72.559 51.9231C71.2806 51.7495 70.0833 51.3351 69.0126 50.6148C66.408 48.8621 65.0356 46.4105 65.0143 43.2628C64.9863 39.1025 65.008 34.9415 65.0073 30.7808C65.0073 29.3318 65.3213 27.9551 66.023 26.6865C67.468 24.0748 69.6743 22.5468 72.6343 22.1178C72.7946 22.0945 72.9596 22.1105 73.1153 22.0541H86.7743C86.7853 22.0845 86.8116 22.0738 86.8326 22.0751C87.328 22.1018 87.817 22.1761 88.2973 22.2965C90.3836 22.8188 92.0606 23.9541 93.3223 25.6921C94.1916 26.8905 94.7093 28.2321 94.8883 29.7038C94.908 29.8645 94.901 30.0285 94.9513 30.1851" fill="#47546C"/>
</g>
<path fill-rule="evenodd" clip-rule="evenodd" d="M80.0045 31.2868C76.8346 31.2868 74.29 33.8248 74.286 36.99C74.2824 40.1598 76.8283 42.7124 79.9959 42.7144C83.1634 42.7163 85.7153 40.1657 85.7143 36.9986C85.7137 33.8324 83.1687 31.2868 80.0045 31.2868M88 36.9989C88.001 41.4032 84.4018 45.0007 79.9952 45C75.5965 44.9993 72.0013 41.4009 72 37.0002C71.9987 32.5798 75.6356 28.937 80.1192 29.0008C84.4485 29.0627 87.996 32.6125 88 36.9989" fill="#FF7700"/>
<path fill-rule="evenodd" clip-rule="evenodd" d="M90 27.9955C90.0017 28.5436 89.5545 28.9965 89.0088 29C88.4556 29.0035 88.0017 28.5546 88 28.003C87.9986 27.4529 88.4435 27.0023 88.9912 27C89.5473 26.9971 89.9983 27.4422 90 27.9955" fill="#FF7700"/>
<path fill-rule="evenodd" clip-rule="evenodd" d="M120.699 104.966C120.718 105.355 120.726 105.745 120.726 106.141C120.726 118.152 112.06 132 96.2083 132C91.3467 132 86.8146 130.497 83 127.919C83.6756 128.001 84.3617 128.045 85.0584 128.045C89.0932 128.045 92.8092 126.591 95.7593 124.156C91.9846 124.083 88.8058 121.454 87.7084 117.842C88.2351 117.946 88.7764 118.008 89.3303 118.008C90.1151 118.008 90.8788 117.895 91.6006 117.683C87.658 116.848 84.6891 113.179 84.6891 108.777V108.66C85.8515 109.341 87.1796 109.748 88.5917 109.795C86.2816 108.166 84.7583 105.384 84.7583 102.23C84.7583 100.566 85.1842 99.0055 85.927 97.6599C90.1759 103.162 96.523 106.778 103.686 107.159C103.537 106.495 103.462 105.8 103.462 105.087C103.462 100.068 107.32 96 112.081 96C114.557 96 116.796 97.1022 118.37 98.8705C120.329 98.4611 122.174 97.7064 123.84 96.664C123.196 98.7864 121.83 100.566 120.05 101.692C121.796 101.473 123.452 100.982 125 100.263C123.846 102.082 122.381 103.686 120.699 104.966" fill="#47546C"/>
<path fill-rule="evenodd" clip-rule="evenodd" d="M38.3997 110.154V87.088H31V77.9049H38.3997V71.1348C38.3997 63.2772 42.8759 59 49.4166 59C52.5502 59 55.2432 59.2498 56.029 59.362V67.573L51.4924 67.5747C47.9357 67.5747 47.2454 69.3862 47.2454 72.0422V77.9049H55.73L54.6244 87.088H47.2454V110.154C47.2454 110.154 38.3997 110.154 38.3997 110.154Z" fill="#47546C"/>
<path d="M128.514 31.0875C115.871 12.9033 94.8257 1 71 1C32.3401 1 1 32.3401 1 71C1 109.66 32.3401 141 71 141" stroke="#47546C" stroke-dasharray="6 4"/>
</svg>
