<svg width="160" height="140" viewBox="0 0 160 140" fill="none" xmlns="http://www.w3.org/2000/svg">
<rect x="94.5" y="42.5" width="65" height="80" rx="1.5" fill="white" stroke="#47546C" stroke-dasharray="6 4"/>
<path fill-rule="evenodd" clip-rule="evenodd" d="M149.999 57L133.819 69.2699L134.525 62.0842L119.499 73.5072L121.559 64.396L105.015 80.1061L105 80.3746L113.878 75.8034L113.122 84.9259L128.165 73.5157L127.75 80.8563L149.893 64.19L150 57H149.999Z" fill="#FF7700"/>
<path fill-rule="evenodd" clip-rule="evenodd" d="M107.526 93.6666H121.756H144.428H149.617C150.127 93.6666 150.128 91.5185 149.617 91.5185H135.387H112.718H107.526C107.016 91.5185 107.015 93.6666 107.526 93.6666" fill="#3F536D"/>
<path fill-rule="evenodd" clip-rule="evenodd" d="M107.526 106.556H121.756H144.428H149.617C150.127 106.556 150.128 104.407 149.617 104.407H135.387H112.718H107.526C107.016 104.407 107.015 106.556 107.526 106.556" fill="#3F536D"/>
<path fill-rule="evenodd" clip-rule="evenodd" d="M107.546 100.111H134.958H138.882C139.42 100.111 139.42 97.963 138.882 97.963H111.47H107.546C107.009 97.963 107.008 100.111 107.546 100.111" fill="#3F536D"/>
<path fill-rule="evenodd" clip-rule="evenodd" d="M107.546 113H134.958H138.882C139.42 113 139.42 110.852 138.882 110.852H111.47H107.546C107.009 110.852 107.008 113 107.546 113" fill="#3F536D"/>
<rect x="0.5" y="0.5" width="130" height="57" rx="1.5" fill="white" stroke="#47546C" stroke-dasharray="6 4"/>
<path fill-rule="evenodd" clip-rule="evenodd" d="M60.911 14L42.9647 28.0579L43.7485 19.825L27.0814 32.9127L29.3668 22.4738L11.0165 40.4732L11 40.7809L20.8471 35.5435L20.0092 45.9954L36.6943 32.9224L36.2333 41.3328L60.7939 22.2378L60.9125 14H60.911Z" fill="#FF7700"/>
<path fill-rule="evenodd" clip-rule="evenodd" d="M70.577 19.9566H86.705H112.401H118.282C118.86 19.9566 118.862 18.1739 118.282 18.1739H102.154H76.4615H70.577C69.9989 18.1739 69.9974 19.9566 70.577 19.9566" fill="#3F536D"/>
<path fill-rule="evenodd" clip-rule="evenodd" d="M70.577 34.7971H86.705H112.401H118.282C118.86 34.7971 118.862 33.0145 118.282 33.0145H102.154H76.4615H70.577C69.9989 33.0145 69.9974 34.7971 70.577 34.7971" fill="#3F536D"/>
<path fill-rule="evenodd" clip-rule="evenodd" d="M70.577 27.3769H100.085H104.309C104.889 27.3769 104.889 25.5942 104.309 25.5942H74.8008H70.577C69.9989 25.5942 69.9974 27.3769 70.577 27.3769" fill="#3F536D"/>
<path fill-rule="evenodd" clip-rule="evenodd" d="M70.577 42.2174H100.085H104.309C104.889 42.2174 104.889 40.4348 104.309 40.4348H74.8008H70.577C69.9989 40.4348 69.9974 42.2174 70.577 42.2174" fill="#3F536D"/>
<path d="M13 118C15.2091 118 17 116.209 17 114C17 111.791 15.2091 110 13 110C10.7909 110 9 111.791 9 114C9 116.209 10.7909 118 13 118Z" fill="#47546C"/>
<path fill-rule="evenodd" clip-rule="evenodd" d="M22.577 115.377H52.0852H56.309C56.8886 115.377 56.8886 113.594 56.309 113.594H26.8008H22.577C21.9989 113.594 21.9974 115.377 22.577 115.377" fill="#3F536D"/>
<path d="M13 129C15.2091 129 17 127.209 17 125C17 122.791 15.2091 121 13 121C10.7909 121 9 122.791 9 125C9 127.209 10.7909 129 13 129Z" fill="#47546C"/>
<path fill-rule="evenodd" clip-rule="evenodd" d="M22.577 126.377H52.0852H56.309C56.8886 126.377 56.8886 124.594 56.309 124.594H26.8008H22.577C21.9989 124.594 21.9974 126.377 22.577 126.377" fill="#3F536D"/>
<path d="M13 140C15.2091 140 17 138.209 17 136C17 133.791 15.2091 132 13 132C10.7909 132 9 133.791 9 136C9 138.209 10.7909 140 13 140Z" fill="#47546C"/>
<path fill-rule="evenodd" clip-rule="evenodd" d="M22.577 137.377H52.0852H56.309C56.8886 137.377 56.8886 135.594 56.309 135.594H26.8008H22.577C21.9989 135.594 21.9974 137.377 22.577 137.377" fill="#3F536D"/>
<mask id="path-19-inside-1" fill="white">
<path d="M33.2526 98H69.4464C70.551 98 71.4464 98.8955 71.4464 100V126.307"/>
</mask>
<path d="M71.9464 126.307V123.677H70.9464V126.307H71.9464ZM71.9464 120.169V114.908H70.9464V120.169H71.9464ZM71.9464 111.4V106.138H70.9464V111.4H71.9464ZM71.9464 102.631V100H70.9464V102.631H71.9464ZM71.9464 100C71.9464 99.5922 71.8484 99.2058 71.6741 98.8645L70.7835 99.3192C70.8875 99.523 70.9464 99.7539 70.9464 100H71.9464ZM70.582 97.7723C70.2407 97.5981 69.8543 97.5 69.4464 97.5V98.5C69.6926 98.5 69.9235 98.5589 70.1272 98.663L70.582 97.7723ZM69.4464 97.5H66.7319V98.5H69.4464V97.5ZM63.1125 97.5H57.6834V98.5H63.1125V97.5ZM54.064 97.5H48.635V98.5H54.064V97.5ZM45.0156 97.5H39.5865V98.5H45.0156V97.5ZM35.9671 97.5H33.2526V98.5H35.9671V97.5ZM72.4464 126.307V123.677H70.4464V126.307H72.4464ZM72.4464 120.169V114.908H70.4464V120.169H72.4464ZM72.4464 111.4V106.138H70.4464V111.4H72.4464ZM72.4464 102.631V100H70.4464V102.631H72.4464ZM72.4464 100C72.4464 99.5113 72.3288 99.0472 72.1194 98.6371L70.3382 99.5466C70.4071 99.6816 70.4464 99.8347 70.4464 100H72.4464ZM70.8093 97.327C70.3992 97.1176 69.9351 97 69.4464 97V99C69.6117 99 69.7649 99.0394 69.8999 99.1083L70.8093 97.327ZM69.4464 97H66.7319V99H69.4464V97ZM63.1125 97H57.6834V99H63.1125V97ZM54.064 97H48.635V99H54.064V97ZM45.0156 97H39.5865V99H45.0156V97ZM35.9671 97H33.2526V99H35.9671V97Z" fill="#47546C" mask="url(#path-19-inside-1)"/>
</svg>
