<svg width="148" height="40" viewBox="0 0 148 40" fill="none" xmlns="http://www.w3.org/2000/svg">
<g clip-path="url(#clip0)">
<path fill-rule="evenodd" clip-rule="evenodd" d="M36.6492 11.2L23.524 21.0414L24.0069 15.4035L11.8176 24.5651L13.3864 17.4002L0.00936935 29.9406L0 30.1511L7.23171 26.4442L6.73554 33.5999L18.9381 24.4476L18.6967 30.2029L36.6598 16.8321L36.6494 11.2H36.6492Z" fill="#03C895"/>
<path d="M82.5674 4.9376L73.8378 30H71.937L64.4042 8.4224L56.8362 30H54.9706L46.241 4.9376H48.4234L55.9562 26.9728L63.5594 4.9376L65.2842 4.9728L72.8522 26.9024L80.385 4.9376H82.5674ZM99.6969 12.3648V30H97.5497V26.6208C97.0334 27.7941 96.2473 28.6976 95.1913 29.3312C94.1588 29.9413 92.915 30.2464 91.4601 30.2464C89.8878 30.2464 88.5033 29.8827 87.3065 29.1552C86.1332 28.4043 85.218 27.3483 84.5609 25.9872C83.9273 24.6027 83.6105 22.9952 83.6105 21.1648C83.6105 19.3344 83.939 17.7269 84.5961 16.3424C85.2532 14.9344 86.1684 13.8549 87.3417 13.104C88.5385 12.3296 89.9113 11.9424 91.4601 11.9424C92.8916 11.9424 94.1236 12.2475 95.1561 12.8576C96.2121 13.4677 97.01 14.3595 97.5497 15.5328V12.3648H99.6969ZM91.7769 28.3456C93.6073 28.3456 95.027 27.712 96.0361 26.4448C97.0452 25.1776 97.5497 23.3941 97.5497 21.0944C97.5497 18.7712 97.0452 16.976 96.0361 15.7088C95.027 14.4416 93.5956 13.808 91.7417 13.808C89.8878 13.808 88.4446 14.4651 87.4121 15.7792C86.3796 17.0699 85.8633 18.8651 85.8633 21.1648C85.8633 23.4411 86.3796 25.2128 87.4121 26.48C88.4446 27.7237 89.8996 28.3456 91.7769 28.3456ZM105.424 12.3648H107.536V30H105.424V12.3648ZM107.958 5.0784V7.824H105.107V5.0784H107.958ZM128.283 12.3648L120.715 30H118.498L111.035 12.3648H113.323L119.694 27.8528L126.101 12.3648H128.283ZM132.661 20.9184V21.024C132.661 23.3941 133.201 25.2128 134.281 26.48C135.384 27.7237 136.979 28.3456 139.068 28.3456C141.18 28.3456 143.116 27.6181 144.876 26.1632L145.721 27.8528C144.946 28.5803 143.961 29.1669 142.764 29.6128C141.567 30.0352 140.335 30.2464 139.068 30.2464C136.393 30.2464 134.281 29.4368 132.732 27.8176C131.183 26.1984 130.409 23.9691 130.409 21.1296C130.409 19.3227 130.749 17.7269 131.429 16.3424C132.133 14.9344 133.107 13.8549 134.351 13.104C135.595 12.3296 137.026 11.9424 138.645 11.9424C140.969 11.9424 142.776 12.6933 144.066 14.1952C145.38 15.6971 146.037 17.7856 146.037 20.4608V20.9184H132.661ZM138.645 13.7024C137.026 13.7024 135.712 14.1952 134.703 15.1808C133.694 16.1429 133.06 17.504 132.802 19.264H143.996C143.855 17.4571 143.327 16.0843 142.412 15.1456C141.497 14.1835 140.241 13.7024 138.645 13.7024Z" fill="white"/>
</g>
<defs>
<clipPath id="clip0">
<rect width="148" height="40" fill="white"/>
</clipPath>
</defs>
</svg>
