<svg width="157" height="53" viewBox="0 0 157 53" fill="none" xmlns="http://www.w3.org/2000/svg">
<g id="Oliver-Logo">
<g clip-path="url(#clip0)">
<g id="Group 10">
<g id="Group 9">
<path id="Fill 1" fill-rule="evenodd" clip-rule="evenodd" d="M39.6848 35.0312H44.2623V0.53894H39.6848V35.0312Z" fill="#47546C"/>
<mask id="mask0" mask-type="alpha" maskUnits="userSpaceOnUse" x="0" y="0" width="117" height="37">
<path id="Clip 3" fill-rule="evenodd" clip-rule="evenodd" d="M0.000305176 0.689941H116.659V36.3989H0.000305176V0.689941Z" fill="white"/>
</mask>
<g mask="url(#mask0)">
<path id="Fill 2" fill-rule="evenodd" clip-rule="evenodd" d="M50.0581 35.0312H54.6355V15.1404H50.0581V35.0312ZM49.3669 6.86962C49.3669 6.06654 49.6596 5.37116 50.2419 4.78654C50.8258 4.20193 51.5246 3.90808 52.3368 3.90808C53.1644 3.90808 53.8693 4.20193 54.4532 4.78654C55.037 5.35885 55.3282 6.06039 55.3282 6.88962C55.3282 7.72039 55.037 8.42808 54.4532 9.01424C53.8831 9.60039 53.1858 9.89116 52.3583 9.89116C51.5308 9.89116 50.8258 9.60039 50.2419 9.01424C49.6596 8.42808 49.3669 7.71424 49.3669 6.86962V6.86962Z" fill="#47546C"/>
<path id="Fill 4" fill-rule="evenodd" clip-rule="evenodd" d="M62.8955 15.1406L68.0216 26.3114L73.1278 15.1406H78.2738L67.9803 36.3991L57.7694 15.1406H62.8955Z" fill="#47546C"/>
<path id="Fill 5" fill-rule="evenodd" clip-rule="evenodd" d="M93.9983 22.4108C93.3608 19.9585 91.8222 18.7338 89.381 18.7338C88.8247 18.7338 88.3022 18.82 87.8148 18.9892C87.326 19.16 86.8816 19.4046 86.4816 19.7246C86.0816 20.0446 85.7399 20.4292 85.4548 20.8785C85.1698 21.3277 84.9522 21.8385 84.8035 22.4108H93.9983ZM98.6969 26.1677H84.4986C84.6196 27.8015 85.1499 29.1031 86.0847 30.0692C87.021 31.0215 88.2209 31.4969 89.686 31.4969C90.8246 31.4969 91.7671 31.2246 92.5134 30.6815C93.2459 30.1354 94.0796 29.1292 95.0159 27.6585L98.8808 29.8231C98.2831 30.8431 97.6533 31.72 96.9882 32.4462C96.3246 33.1754 95.612 33.7754 94.8535 34.2446C94.0934 34.7138 93.272 35.0585 92.3908 35.2754C91.5096 35.4938 90.5534 35.6015 89.5235 35.6015C86.5659 35.6015 84.1936 34.6492 82.4037 32.7431C80.6138 30.8246 79.7188 28.2769 79.7188 25.1062C79.7188 21.96 80.5862 19.4154 82.3209 17.4677C84.071 15.5477 86.3912 14.5892 89.2783 14.5892C92.1946 14.5892 94.4995 15.52 96.1959 17.3862C97.877 19.2369 98.7183 21.8031 98.7183 25.0846L98.6969 26.1677Z" fill="#47546C"/>
<path id="Fill 6" fill-rule="evenodd" clip-rule="evenodd" d="M103.701 15.1406H108.279V16.916C109.118 16.0314 109.865 15.4268 110.516 15.0991C111.18 14.7591 111.967 14.5898 112.876 14.5898C114.082 14.5898 115.343 14.9837 116.66 15.7729L114.563 19.9806C113.696 19.3529 112.848 19.0406 112.021 19.0406C109.526 19.0406 108.279 20.9329 108.279 24.7191V35.0314H103.701V15.1406Z" fill="#47546C"/>
<path id="Fill 7" fill-rule="evenodd" clip-rule="evenodd" d="M26.935 9.42533C24.5596 6.62225 21.0212 4.84225 17.0766 4.84225C9.93989 4.84225 4.1349 10.6699 4.1349 17.833C4.1349 24.9976 9.93989 30.8253 17.0766 30.8253C23.8149 30.8253 29.3654 25.6299 29.9646 19.0192L34.0303 15.7761C34.1115 16.4499 34.1529 17.1376 34.1529 17.833C34.1529 27.2853 26.4921 34.9761 17.0766 34.9761C7.66111 34.9761 0.000305176 27.2853 0.000305176 17.833C0.000305176 8.38071 7.66111 0.689941 17.0766 0.689941C22.3728 0.689941 27.1143 3.12225 30.2481 6.93456" fill="#47546C"/>
<path id="Fill 8" fill-rule="evenodd" clip-rule="evenodd" d="M36.0564 10.6544L36.0472 5.90979L25.2402 14.2006L25.6386 9.45133L15.6025 17.1667L16.8944 11.1329L5.88054 21.6959L5.87135 21.8729L11.8265 18.7513L11.4173 24.7775L21.4657 17.0683L21.2665 21.9159L36.0564 10.6544Z" fill="#FF7700"/>
</g>
</g>
</g>
<path id="GET THE WORD OUT" d="M45.155 43.555C44.9423 43.1077 44.6343 42.763 44.231 42.521C43.8277 42.2717 43.3583 42.147 42.823 42.147C42.2877 42.147 41.8037 42.2717 41.371 42.521C40.9457 42.763 40.6083 43.115 40.359 43.577C40.117 44.0317 39.996 44.5597 39.996 45.161C39.996 45.7623 40.117 46.2903 40.359 46.745C40.6083 47.1997 40.9457 47.5517 41.371 47.801C41.8037 48.043 42.2877 48.164 42.823 48.164C43.571 48.164 44.187 47.9403 44.671 47.493C45.155 47.0457 45.4373 46.4407 45.518 45.678H42.46V44.864H46.585V45.634C46.5263 46.2647 46.3283 46.844 45.991 47.372C45.6537 47.8927 45.21 48.307 44.66 48.615C44.11 48.9157 43.4977 49.066 42.823 49.066C42.1117 49.066 41.4627 48.901 40.876 48.571C40.2893 48.2337 39.8237 47.768 39.479 47.174C39.1417 46.58 38.973 45.909 38.973 45.161C38.973 44.413 39.1417 43.742 39.479 43.148C39.8237 42.5467 40.2893 42.081 40.876 41.751C41.4627 41.4137 42.1117 41.245 42.823 41.245C43.637 41.245 44.3557 41.4467 44.979 41.85C45.6097 42.2533 46.068 42.8217 46.354 43.555H45.155ZM49.9095 42.147V44.71H52.7035V45.535H49.9095V48.175H53.0335V49H48.9085V41.322H53.0335V42.147H49.9095ZM60.2672 41.333V42.147H58.1772V49H57.1762V42.147H55.0752V41.333H60.2672ZM71.151 41.333V42.147H69.061V49H68.06V42.147H65.959V41.333H71.151ZM79.2901 41.333V49H78.2891V45.524H74.3841V49H73.3831V41.333H74.3841V44.699H78.2891V41.333H79.2901ZM83.0003 42.147V44.71H85.7943V45.535H83.0003V48.175H86.1243V49H81.9993V41.322H86.1243V42.147H83.0003ZM102.208 41.333L99.9856 49H98.8636L97.0816 42.829L95.2336 49L94.1226 49.011L91.9776 41.333H93.0446L94.7166 47.834L96.5646 41.333H97.6866L99.4466 47.812L101.13 41.333H102.208ZM107.779 49.077C107.068 49.077 106.419 48.912 105.832 48.582C105.245 48.2447 104.78 47.779 104.435 47.185C104.098 46.5837 103.929 45.909 103.929 45.161C103.929 44.413 104.098 43.742 104.435 43.148C104.78 42.5467 105.245 42.081 105.832 41.751C106.419 41.4137 107.068 41.245 107.779 41.245C108.498 41.245 109.15 41.4137 109.737 41.751C110.324 42.081 110.786 42.543 111.123 43.137C111.46 43.731 111.629 44.4057 111.629 45.161C111.629 45.9163 111.46 46.591 111.123 47.185C110.786 47.779 110.324 48.2447 109.737 48.582C109.15 48.912 108.498 49.077 107.779 49.077ZM107.779 48.208C108.314 48.208 108.795 48.0833 109.22 47.834C109.653 47.5847 109.99 47.229 110.232 46.767C110.481 46.305 110.606 45.7697 110.606 45.161C110.606 44.545 110.481 44.0097 110.232 43.555C109.99 43.093 109.656 42.7373 109.231 42.488C108.806 42.2387 108.322 42.114 107.779 42.114C107.236 42.114 106.752 42.2387 106.327 42.488C105.902 42.7373 105.564 43.093 105.315 43.555C105.073 44.0097 104.952 44.545 104.952 45.161C104.952 45.7697 105.073 46.305 105.315 46.767C105.564 47.229 105.902 47.5847 106.327 47.834C106.76 48.0833 107.244 48.208 107.779 48.208ZM117.988 49L116.162 45.865H114.952V49H113.951V41.333H116.426C117.005 41.333 117.493 41.432 117.889 41.63C118.292 41.828 118.593 42.0957 118.791 42.433C118.989 42.7703 119.088 43.1553 119.088 43.588C119.088 44.116 118.934 44.5817 118.626 44.985C118.325 45.3883 117.87 45.656 117.262 45.788L119.187 49H117.988ZM114.952 45.062H116.426C116.968 45.062 117.375 44.93 117.647 44.666C117.918 44.3947 118.054 44.0353 118.054 43.588C118.054 43.1333 117.918 42.7813 117.647 42.532C117.383 42.2827 116.976 42.158 116.426 42.158H114.952V45.062ZM124.03 41.333C124.866 41.333 125.588 41.4907 126.197 41.806C126.813 42.114 127.282 42.5577 127.605 43.137C127.935 43.7163 128.1 44.3983 128.1 45.183C128.1 45.9677 127.935 46.6497 127.605 47.229C127.282 47.801 126.813 48.241 126.197 48.549C125.588 48.8497 124.866 49 124.03 49H121.643V41.333H124.03ZM124.03 48.175C125.02 48.175 125.775 47.9147 126.296 47.394C126.817 46.866 127.077 46.129 127.077 45.183C127.077 44.2297 126.813 43.4853 126.285 42.95C125.764 42.4147 125.013 42.147 124.03 42.147H122.644V48.175H124.03ZM137.829 49.077C137.118 49.077 136.469 48.912 135.882 48.582C135.295 48.2447 134.83 47.779 134.485 47.185C134.148 46.5837 133.979 45.909 133.979 45.161C133.979 44.413 134.148 43.742 134.485 43.148C134.83 42.5467 135.295 42.081 135.882 41.751C136.469 41.4137 137.118 41.245 137.829 41.245C138.548 41.245 139.2 41.4137 139.787 41.751C140.374 42.081 140.836 42.543 141.173 43.137C141.51 43.731 141.679 44.4057 141.679 45.161C141.679 45.9163 141.51 46.591 141.173 47.185C140.836 47.779 140.374 48.2447 139.787 48.582C139.2 48.912 138.548 49.077 137.829 49.077ZM137.829 48.208C138.364 48.208 138.845 48.0833 139.27 47.834C139.703 47.5847 140.04 47.229 140.282 46.767C140.531 46.305 140.656 45.7697 140.656 45.161C140.656 44.545 140.531 44.0097 140.282 43.555C140.04 43.093 139.706 42.7373 139.281 42.488C138.856 42.2387 138.372 42.114 137.829 42.114C137.286 42.114 136.802 42.2387 136.377 42.488C135.952 42.7373 135.614 43.093 135.365 43.555C135.123 44.0097 135.002 44.545 135.002 45.161C135.002 45.7697 135.123 46.305 135.365 46.767C135.614 47.229 135.952 47.5847 136.377 47.834C136.81 48.0833 137.294 48.208 137.829 48.208ZM144.979 41.333V46.184C144.979 46.866 145.144 47.372 145.474 47.702C145.812 48.032 146.277 48.197 146.871 48.197C147.458 48.197 147.916 48.032 148.246 47.702C148.584 47.372 148.752 46.866 148.752 46.184V41.333H149.753V46.173C149.753 46.811 149.625 47.35 149.368 47.79C149.112 48.2227 148.763 48.5453 148.323 48.758C147.891 48.9707 147.403 49.077 146.86 49.077C146.318 49.077 145.826 48.9707 145.386 48.758C144.954 48.5453 144.609 48.2227 144.352 47.79C144.103 47.35 143.978 46.811 143.978 46.173V41.333H144.979ZM157.142 41.333V42.147H155.052V49H154.051V42.147H151.95V41.333H157.142Z" fill="#47546C"/>
</g>
</g>
<defs>
<clipPath id="clip0">
<rect width="157" height="53" fill="white"/>
</clipPath>
</defs>
</svg>
