<svg width="117" height="37" viewBox="0 0 117 37" fill="none" xmlns="http://www.w3.org/2000/svg">
<g id="Oliver-Logo">
<g id="Group 10">
<g id="Group 9">
<path id="Fill 1" fill-rule="evenodd" clip-rule="evenodd" d="M39.6848 35.0311H44.2622V0.538818H39.6848V35.0311Z" fill="white"/>
<mask id="mask0" mask-type="alpha" maskUnits="userSpaceOnUse" x="0" y="0" width="117" height="37">
<path id="Clip 3" fill-rule="evenodd" clip-rule="evenodd" d="M0.000305176 0.689941H116.659V36.3989H0.000305176V0.689941Z" fill="white"/>
</mask>
<g mask="url(#mask0)">
<path id="Fill 2" fill-rule="evenodd" clip-rule="evenodd" d="M50.058 35.0313H54.6355V15.1405H50.058V35.0313ZM49.3669 6.86974C49.3669 6.06666 49.6596 5.37128 50.2419 4.78666C50.8258 4.20205 51.5246 3.9082 52.3368 3.9082C53.1643 3.9082 53.8693 4.20205 54.4531 4.78666C55.037 5.35897 55.3282 6.06051 55.3282 6.88974C55.3282 7.72051 55.037 8.4282 54.4531 9.01436C53.8831 9.60051 53.1858 9.89128 52.3583 9.89128C51.5307 9.89128 50.8258 9.60051 50.2419 9.01436C49.6596 8.4282 49.3669 7.71436 49.3669 6.86974V6.86974Z" fill="white"/>
<path id="Fill 4" fill-rule="evenodd" clip-rule="evenodd" d="M62.8955 15.1406L68.0216 26.3114L73.1278 15.1406H78.2738L67.9802 36.3991L57.7694 15.1406H62.8955Z" fill="white"/>
<path id="Fill 5" fill-rule="evenodd" clip-rule="evenodd" d="M93.9983 22.4106C93.3608 19.9583 91.8222 18.7337 89.381 18.7337C88.8247 18.7337 88.3022 18.8199 87.8148 18.9891C87.326 19.1599 86.8816 19.4045 86.4816 19.7245C86.0816 20.0445 85.7399 20.4291 85.4548 20.8783C85.1698 21.3276 84.9522 21.8383 84.8035 22.4106H93.9983ZM98.6969 26.1676H84.4986C84.6196 27.8014 85.1499 29.103 86.0847 30.0691C87.021 31.0214 88.2209 31.4968 89.686 31.4968C90.8246 31.4968 91.7671 31.2245 92.5134 30.6814C93.2459 30.1353 94.0796 29.1291 95.0159 27.6583L98.8808 29.823C98.2831 30.843 97.6533 31.7199 96.9882 32.446C96.3246 33.1753 95.612 33.7753 94.8535 34.2445C94.0934 34.7137 93.272 35.0583 92.3908 35.2753C91.5096 35.4937 90.5534 35.6014 89.5235 35.6014C86.5659 35.6014 84.1936 34.6491 82.4037 32.743C80.6138 30.8245 79.7188 28.2768 79.7188 25.106C79.7188 21.9599 80.5862 19.4153 82.3209 17.4676C84.071 15.5476 86.3912 14.5891 89.2783 14.5891C92.1946 14.5891 94.4995 15.5199 96.1959 17.386C97.877 19.2368 98.7183 21.803 98.7183 25.0845L98.6969 26.1676Z" fill="white"/>
<path id="Fill 6" fill-rule="evenodd" clip-rule="evenodd" d="M103.701 15.1406H108.279V16.916C109.118 16.0314 109.865 15.4268 110.516 15.0991C111.18 14.7591 111.967 14.5898 112.876 14.5898C114.082 14.5898 115.343 14.9837 116.66 15.7729L114.563 19.9806C113.696 19.3529 112.848 19.0406 112.021 19.0406C109.526 19.0406 108.279 20.9329 108.279 24.7191V35.0314H103.701V15.1406Z" fill="white"/>
<path id="Fill 7" fill-rule="evenodd" clip-rule="evenodd" d="M26.935 9.42533C24.5596 6.62225 21.0212 4.84225 17.0766 4.84225C9.93989 4.84225 4.1349 10.6699 4.1349 17.833C4.1349 24.9976 9.93989 30.8253 17.0766 30.8253C23.8149 30.8253 29.3654 25.6299 29.9646 19.0192L34.0303 15.7761C34.1115 16.4499 34.1529 17.1376 34.1529 17.833C34.1529 27.2853 26.4921 34.9761 17.0766 34.9761C7.66111 34.9761 0.000305176 27.2853 0.000305176 17.833C0.000305176 8.38071 7.66111 0.689941 17.0766 0.689941C22.3728 0.689941 27.1143 3.12225 30.2481 6.93456" fill="white"/>
<path id="Fill 8" fill-rule="evenodd" clip-rule="evenodd" d="M36.0564 10.6545L36.0472 5.90991L25.2402 14.2007L25.6386 9.45145L15.6025 17.1668L16.8944 11.133L5.88053 21.6961L5.87134 21.873L11.8265 18.7515L11.4173 24.7776L21.4657 17.0684L21.2665 21.9161L36.0564 10.6545Z" fill="#FF8E00"/>
</g>
</g>
</g>
</g>
</svg>
