<svg width="81" height="78" viewBox="0 0 81 78" fill="none" xmlns="http://www.w3.org/2000/svg">
<path fill-rule="evenodd" clip-rule="evenodd" d="M56.201 55.8012C53.8346 55.8012 51.9653 53.9203 51.9653 51.539C51.9653 49.1552 53.8346 47.2742 56.201 47.2742C58.5687 47.2742 60.4379 49.1552 60.4379 51.539C60.4379 53.9203 58.5687 55.8012 56.201 55.8012M56.201 45.5187C52.8377 45.5187 50.2195 48.2774 50.2195 51.539C50.2195 54.9247 52.961 57.5568 56.201 57.5568C59.5656 57.5568 62.1838 54.798 62.1838 51.539C62.3072 48.2774 59.5656 45.5187 56.201 45.5187" fill="#FF8E00"/>
<path fill-rule="evenodd" clip-rule="evenodd" d="M69.5351 64.83H80.9998L67.7918 27.8379H13.209L-0.000244141 64.83H42.7428L43.8644 62.949H3.11514L14.3305 29.7188H66.7936L78.009 62.949H68.7874L69.5351 64.83Z" fill="white"/>
<path fill-rule="evenodd" clip-rule="evenodd" d="M47.9769 77.7651H49.8462V71.2445H47.9769V77.7651Z" fill="white"/>
<path fill-rule="evenodd" clip-rule="evenodd" d="M62.6815 77.7651H64.5507V71.2445H62.6815V77.7651Z" fill="white"/>
<path fill-rule="evenodd" clip-rule="evenodd" d="M55.7033 65.9774L51.7156 58.4536H51.0925C48.1005 58.4536 45.4848 59.9584 43.8648 62.2155L42.7433 64.0965C42.2448 65.225 41.9956 66.3549 41.9956 67.6088V75.2568H43.8648V67.6088C43.8648 63.8469 46.8544 60.712 50.4695 60.4612L54.4571 67.985H57.8218L61.8082 60.4612C65.5467 60.712 68.4141 63.8469 68.4141 67.6088V75.2568H70.2833V67.6088C70.2833 66.3549 70.2222 65.0507 69.725 63.9209L68.7879 62.2155C67.0433 59.9584 64.4264 58.4536 61.4356 58.4536H60.9371L56.9495 65.9774" fill="white"/>
<path fill-rule="evenodd" clip-rule="evenodd" d="M33.1478 1.88107C35.3909 1.88107 37.1355 3.63663 37.1355 5.89377C37.1355 8.15092 35.3909 9.90647 33.1478 9.90647C30.9047 9.90647 29.1601 8.15092 29.1601 5.89377C29.1601 3.63663 31.0294 1.88107 33.1478 1.88107M33.1478 11.7874C36.3878 11.7874 39.0047 9.15409 39.0047 5.89377C39.0047 2.63346 36.3878 0.00012207 33.1478 0.00012207C29.9078 0.00012207 27.2909 2.63346 27.2909 5.89377C27.2909 9.15409 29.9078 11.7874 33.1478 11.7874" fill="#FF8E00"/>
<path fill-rule="evenodd" clip-rule="evenodd" d="M38.6307 27.8383H40.5V24.0764H38.6307V27.8383Z" fill="white"/>
<path fill-rule="evenodd" clip-rule="evenodd" d="M25.4215 27.8383H27.2907V24.0764H25.4215V27.8383Z" fill="white"/>
<path fill-rule="evenodd" clip-rule="evenodd" d="M37.8829 12.6653H37.3845L33.646 19.4367H32.6491L29.0352 12.6653H28.5368C24.0506 12.6653 20.4368 16.3018 20.4368 20.8161V27.8383H22.1814V20.8161C22.1814 17.4304 24.6737 14.797 27.9137 14.4208L31.5275 21.1923H34.6429L38.2568 14.4208C41.4968 14.6716 43.9891 17.4304 43.9891 20.8161V27.8383H45.9829V20.8161C45.9829 16.3018 42.3691 12.6653 37.8829 12.6653" fill="white"/>
<path fill-rule="evenodd" clip-rule="evenodd" d="M55.0802 12.4143C55.0802 11.7873 55.5774 11.1603 56.3264 11.1603C56.9495 11.1603 57.5725 11.6619 57.5725 12.4143V18.1826C57.5725 18.8095 57.0741 19.4365 56.3264 19.4365C55.7033 19.4365 55.0802 18.9349 55.0802 18.1826V12.4143ZM53.211 18.1826C53.211 19.8127 54.5818 21.1921 56.2005 21.1921C57.8218 21.1921 59.1925 19.8127 59.1925 18.1826V12.4143C59.1925 10.7842 57.8218 9.40479 56.2005 9.40479C54.5818 9.40479 53.211 10.7842 53.211 12.4143V18.1826Z" fill="#FF8E00"/>
<path fill-rule="evenodd" clip-rule="evenodd" d="M55.3292 8.02561H57.1985V6.14465H55.3292V8.02561Z" fill="#FF8E00"/>
<path fill-rule="evenodd" clip-rule="evenodd" d="M52.128 7.52454L53.4501 8.855L52.128 10.1842L50.8058 8.855L52.128 7.52454Z" fill="#FF8E00"/>
<path fill-rule="evenodd" clip-rule="evenodd" d="M60.3787 7.50757L61.7009 8.83803L60.3787 10.1685L59.0566 8.83803L60.3787 7.50757Z" fill="#FF8E00"/>
<path fill-rule="evenodd" clip-rule="evenodd" d="M57.0736 27.8378V24.0759C59.9397 23.5743 62.184 21.1918 62.184 18.1823V15.0474H60.3148V18.1823C60.3148 20.4394 58.4456 22.3204 56.2013 22.3204C53.9582 22.3204 52.089 20.4394 52.089 18.1823V15.0474H50.2197V18.1823C50.2197 21.1918 52.4628 23.6997 55.3302 24.0759V27.8378H57.0736Z" fill="#FF8E00"/>
</svg>
