<svg width="83" height="78" viewBox="0 0 83 78" fill="none" xmlns="http://www.w3.org/2000/svg">
<mask id="mask0" mask-type="alpha" maskUnits="userSpaceOnUse" x="0" y="0" width="83" height="78">
<path fill-rule="evenodd" clip-rule="evenodd" d="M0.000732422 0.254028H82.8737V77.8745H0.000732422V0.254028Z" fill="white"/>
</mask>
<g mask="url(#mask0)">
<path fill-rule="evenodd" clip-rule="evenodd" d="M55.2071 49.1588L69.7962 52.5445C73.6934 53.4223 76.5858 56.5572 77.3416 60.3191L80.3586 75.7429H48.0401L55.2071 49.1588ZM35.4631 75.8683H34.9601L27.6674 48.5318L32.8222 41.3842C35.3374 43.0143 38.104 44.0175 40.7449 44.0175C43.1343 44.0175 45.9022 43.0143 48.5419 41.2588L53.6992 48.281L46.2783 75.9937H45.6495V75.8683H35.4631ZM43.7631 75.8683H37.2237H43.7631ZM2.13735 75.8683L5.03104 60.4445C5.78432 56.5572 8.67675 53.4223 12.5765 52.5445L25.781 49.535L32.8222 75.8683H2.13735ZM56.3389 19.9413C56.5916 20.0667 56.8432 20.1921 57.0934 20.1921H57.4719H57.8492C58.1007 20.1921 58.6025 20.1921 58.6025 21.5715C58.6025 23.7032 55.9629 26.2112 54.8298 27.0889L54.4525 27.2143V27.7159C54.4525 35.6159 46.0267 42.1366 40.4934 42.1366C34.3313 42.1366 26.6601 35.7413 26.5343 27.9667V27.4651L26.1571 27.2143C25.1522 26.462 22.3843 23.8286 22.3843 21.6969C22.3843 20.4429 22.8874 20.4429 23.2659 20.4429C23.7677 20.4429 24.1449 20.1921 24.5235 19.9413V18.0604C24.5235 17.5588 24.3964 17.1826 24.3964 16.8064V15.3016C24.648 11.2889 24.7737 7.52704 29.4267 7.27625H30.1826L30.3071 6.52387C30.3071 6.39847 31.3131 2.13498 38.7328 2.13498C38.8586 2.13498 45.7752 2.51117 48.7934 3.76514C48.9192 3.76514 49.675 4.14133 50.8055 4.14133C51.6858 4.14133 52.4416 4.01593 53.3207 3.63974C53.0704 4.14133 52.5661 4.76831 51.9374 5.3953L50.5553 6.77466L52.4416 7.02546C52.5661 7.02546 56.4646 7.52704 56.2144 13.5461L55.7101 18.1858L56.3389 19.9413ZM79.228 60.0683C78.3464 55.4286 74.8265 51.7921 70.298 50.7889L55.0813 47.1524L49.7995 40.0048C53.3207 37.1207 56.0874 32.9826 56.2144 28.0921C57.3449 27.2143 60.3644 24.3302 60.3644 21.3207C60.2374 18.4366 58.351 18.1858 57.7222 18.1858H57.5964L58.1007 13.7969C58.351 8.53022 55.9629 6.52387 54.201 5.64609C55.9629 3.26355 55.5856 1.75879 55.4586 1.63339L55.0813 0.504822L54.0765 1.2572C52.9434 2.00958 51.8129 2.38577 50.8055 2.38577C50.051 2.38577 49.675 2.13498 49.548 2.13498C46.1538 0.630219 39.1101 0.254028 38.7328 0.254028C31.4401 0.254028 29.1752 3.89054 28.6722 5.5207C22.5101 6.27308 22.7616 12.4175 22.8874 15.427V16.8064C22.8874 17.308 22.8874 17.935 23.0131 18.6874C22.1328 18.6874 20.498 19.1889 20.498 21.8223C20.3722 24.8318 23.5161 27.5905 24.648 28.5937C24.8995 33.3588 27.5404 37.6223 31.0616 40.381L25.9055 47.654L12.198 50.7889C7.54619 51.7921 4.02372 55.554 3.26917 60.1937L0.000732422 77.8747H33.5767H35.3374H46.0267H47.7886H82.8737L79.228 60.0683Z" fill="white"/>
</g>
<path fill-rule="evenodd" clip-rule="evenodd" d="M52.4414 21.9475L52.3144 22.8253C51.9384 24.9571 51.8126 25.3333 50.8053 25.7094C50.8053 25.7094 49.5478 25.9602 48.1657 25.9602C46.5308 25.9602 45.3978 25.5841 44.769 25.0825C44.5175 24.7063 43.7642 23.3269 43.1354 21.6967C43.1354 21.6967 42.8826 21.0698 43.1354 20.6936C43.3869 20.3174 44.0157 20.0666 44.896 19.9412C44.896 19.9412 46.9081 19.6904 48.919 19.6904C50.052 19.6904 51.0568 19.8158 51.6856 19.9412C51.6856 19.9412 52.8187 20.192 52.4414 21.9475V21.9475ZM37.8523 21.8221C37.2235 23.4523 36.4702 24.8317 36.2187 25.0825C35.5899 25.7094 34.4581 25.9602 32.822 25.9602C31.4399 25.9602 30.3068 25.7094 30.1823 25.7094C29.0493 25.3333 28.9248 24.9571 28.5475 22.8253L28.4205 21.9475C28.1702 20.3174 29.0493 19.9412 29.302 19.8158C29.9308 19.6904 30.9356 19.565 32.0687 19.565C34.0796 19.565 36.093 19.8158 36.093 19.8158C36.9733 19.9412 37.602 20.192 37.8523 20.5682C38.1051 21.0698 37.8523 21.6967 37.8523 21.8221V21.8221ZM56.3399 19.9412L55.7111 18.1856L53.572 19.0634C53.0702 18.4364 52.3144 18.1856 51.9384 18.0602C51.1839 17.9348 50.052 17.8094 48.7945 17.8094C46.6553 17.8094 44.6445 18.0602 44.5175 18.0602C42.8826 18.311 41.8778 18.8126 41.249 19.8158C41.249 19.9412 41.249 19.9412 41.1233 20.0666H39.4884C39.4884 19.9412 39.4884 19.9412 39.3626 19.8158C38.8596 18.8126 37.7278 18.1856 36.093 18.0602C35.9659 18.0602 33.9551 17.8094 31.8172 17.8094C30.5596 17.8094 29.5536 17.9348 28.6733 18.0602C28.296 18.1856 27.5414 18.4364 27.0384 19.0634L24.5233 18.0602V19.9412L26.6611 20.819C26.5341 21.3206 26.5341 21.8221 26.6611 22.3237L26.7869 23.2015C27.1629 25.4587 27.4157 26.9634 29.8051 27.5904C29.8051 27.5904 31.1884 27.8412 32.822 27.8412C35.0869 27.8412 36.7217 27.3396 37.602 26.211L37.7278 26.0856C37.7278 25.9602 38.8596 24.4555 39.4884 22.4491C39.4884 22.4491 39.6142 22.0729 39.7387 21.8221H41.1233C41.249 22.1983 41.3748 22.3237 41.3748 22.4491C42.1293 24.4555 43.1354 26.0856 43.2599 26.0856L43.3869 26.211C44.393 27.2142 46.0265 27.8412 48.1657 27.8412C49.7993 27.8412 51.1839 27.5904 51.3096 27.465C53.699 26.7126 53.8248 25.3333 54.2008 23.0761L54.3278 22.1983C54.4536 21.5714 54.4536 21.0698 54.3278 20.6936L56.3399 19.9412Z" fill="#FF8E00"/>
<path fill-rule="evenodd" clip-rule="evenodd" d="M42.3808 56.682H38.4811L36.5947 53.4217H44.2672L42.3808 56.682ZM46.7823 52.0436C46.6553 51.7928 46.2793 51.5408 46.0265 51.5408H35.0869C34.7084 51.5408 34.4581 51.6662 34.3323 52.0436V52.9201L37.099 57.8106L35.4642 75.869H37.2235L38.8596 58.563H42.1293L43.7642 75.869H45.6505L44.0157 57.8106L46.7823 52.9201C46.9081 52.6706 46.9081 52.2932 46.7823 52.0436V52.0436Z" fill="#FF8E00"/>
</svg>
