<svg width="40" height="40" viewBox="0 0 40 40" fill="none" xmlns="http://www.w3.org/2000/svg">
<path id="User-icon" fill-rule="evenodd" clip-rule="evenodd" d="M20 40C31.0457 40 40 31.0457 40 20C40 8.9543 31.0457 0 20 0C8.9543 0 0 8.9543 0 20C0 31.0457 8.9543 40 20 40ZM11.5385 26.2393C11.5385 23.3333 17.4247 21.735 20.3679 21.735C23.311 21.735 29.1973 23.3333 29.1973 26.2393V27.6923H11.5385V26.2393ZM20.3679 19.4872C22.8696 19.4872 24.7826 17.5983 24.7826 15.1282C24.7826 12.6581 22.8696 10.7692 20.3679 10.7692C17.8662 10.7692 15.9532 12.6581 15.9532 15.1282C15.9532 17.5983 17.8662 19.4872 20.3679 19.4872Z" fill="#47546C"/>
</svg>
