<?xml version="1.0" encoding="UTF-8" standalone="no"?>
<!-- Created with Inkscape (http://www.inkscape.org/) -->

<svg
   xmlns:dc="http://purl.org/dc/elements/1.1/"
   xmlns:cc="http://creativecommons.org/ns#"
   xmlns:rdf="http://www.w3.org/1999/02/22-rdf-syntax-ns#"
   xmlns:svg="http://www.w3.org/2000/svg"
   xmlns="http://www.w3.org/2000/svg"
   xmlns:xlink="http://www.w3.org/1999/xlink"
   xmlns:sodipodi="http://sodipodi.sourceforge.net/DTD/sodipodi-0.dtd"
   xmlns:inkscape="http://www.inkscape.org/namespaces/inkscape"
   width="76.0158mm"
   height="57mm"
   viewBox="0 0 76.0158 57"
   version="1.1"
   id="svg2056"
   inkscape:version="0.92.4 (5da689c313, 2019-01-14)"
   sodipodi:docname="sample-image.svg">
  <defs
     id="defs2050" />
  <sodipodi:namedview
     id="base"
     pagecolor="#ffffff"
     bordercolor="#666666"
     borderopacity="1.0"
     inkscape:pageopacity="0.0"
     inkscape:pageshadow="2"
     inkscape:zoom="0.9899495"
     inkscape:cx="-0.71778126"
     inkscape:cy="-97.57115"
     inkscape:document-units="mm"
     inkscape:current-layer="layer1"
     showgrid="false"
     inkscape:window-width="1303"
     inkscape:window-height="1168"
     inkscape:window-x="611"
     inkscape:window-y="0"
     inkscape:window-maximized="0" />
  <metadata
     id="metadata2053">
    <rdf:RDF>
      <cc:Work
         rdf:about="">
        <dc:format>image/svg+xml</dc:format>
        <dc:type
           rdf:resource="http://purl.org/dc/dcmitype/StillImage" />
        <dc:title />
      </cc:Work>
    </rdf:RDF>
  </metadata>
  <g
     inkscape:label="Layer 1"
     inkscape:groupmode="layer"
     id="layer1"
     transform="translate(-24.736148,-96.091456)">
    <rect
       style="opacity:1;fill:#ffffff;fill-opacity:0.3764706;stroke:#000000;stroke-width:1.46561658;stroke-linecap:butt;stroke-linejoin:miter;stroke-miterlimit:4;stroke-dasharray:none;stroke-opacity:1"
       id="rect2676"
       width="74.545288"
       height="55.53764"
       x="25.471405"
       y="96.822639" />
    <g
       id="g993"
       transform="translate(0.3285415,2.515148)">
      <g
         transform="matrix(0.89317155,0,0,0.89317155,6.3725593,16.440278)"
         id="g916">
        <path
           inkscape:connector-curvature="0"
           id="path2746"
           style="font-style:normal;font-variant:normal;font-weight:normal;font-stretch:normal;font-size:71.0923996px;font-family:'Lobster 1.3';-inkscape-font-specification:'Lobster 1.3, ';writing-mode:lr-tb;fill:#100f0d;fill-opacity:1;fill-rule:nonzero;stroke:none;stroke-width:0.29576212"
           d="m 39.249435,121.63031 -0.904137,3.974 c -0.441555,0.58874 -1.009269,0.77797 -1.787248,0.77797 -1.745194,0 -2.439066,-1.59801 -2.439066,-3.46936 0,-3.3432 2.354961,-7.27515 4.667869,-7.27515 1.345692,0 1.450824,1.15646 1.450824,1.49288 0,0.52566 -0.399502,1.57698 -0.925163,1.72417 0.399502,0.46258 1.114401,0.54669 1.450824,0.54669 1.072349,0 1.471851,-0.82003 1.471851,-1.93444 0,-2.03956 -1.955459,-2.81754 -3.910918,-2.81754 -4.688895,0 -7.443359,4.07913 -7.443359,8.09518 0,2.90165 1.093375,5.38277 4.520685,5.38277 0.189237,0 1.345692,-0.10513 2.565225,-0.75695 l -0.841058,3.76373 c -0.483608,2.16572 -1.156454,2.58625 -2.102643,2.58625 -0.883111,0 -1.324666,-0.69387 -1.324666,-1.4298 0,-0.77798 0.504635,-1.59801 1.471851,-1.59801 0.420528,0 0.735925,0.10514 1.261586,0.54669 0.08411,-0.3154 0.126158,-0.60977 0.126158,-0.84106 0,-1.34569 -1.219533,-1.40877 -2.06059,-1.40877 -1.661089,0 -2.565226,1.45083 -2.565226,2.88062 0,1.45083 0.925164,2.90165 2.922675,2.90165 3.448336,0 4.688896,-2.01854 5.382768,-5.23558 l 1.724168,-7.90594 z" />
        <path
           inkscape:connector-curvature="0"
           id="path2748"
           style="font-style:normal;font-variant:normal;font-weight:normal;font-stretch:normal;font-size:71.0923996px;font-family:'Lobster 1.3';-inkscape-font-specification:'Lobster 1.3, ';writing-mode:lr-tb;fill:#100f0d;fill-opacity:1;fill-rule:nonzero;stroke:none;stroke-width:0.29576212"
           d="m 44.190323,119.90614 -2.228803,10.51322 h 3.027808 l 1.745194,-8.24236 c 0.483608,-0.44156 0.820031,-0.67285 1.450824,-0.67285 0.630793,0 0.04205,1.38775 1.219534,1.38775 1.030295,0 1.576983,-0.90414 1.576983,-1.64007 0,-0.799 -0.567714,-1.34569 -1.513904,-1.34569 -0.883111,0 -1.724168,0.46258 -2.48112,1.05132 l 0.231291,-1.05132 z" />
        <path
           inkscape:connector-curvature="0"
           id="path2750"
           style="font-style:normal;font-variant:normal;font-weight:normal;font-stretch:normal;font-size:71.0923996px;font-family:'Lobster 1.3';-inkscape-font-specification:'Lobster 1.3, ';writing-mode:lr-tb;fill:#100f0d;fill-opacity:1;fill-rule:nonzero;stroke:none;stroke-width:0.29576212"
           d="m 60.212251,119.90614 h -3.006779 l -0.126159,0.54669 c -0.378476,-0.3154 -0.904137,-0.52566 -1.408771,-0.52566 -4.205288,0 -5.508927,4.33144 -5.508927,7.94799 0,1.24056 0.58874,2.67036 2.607278,2.67036 1.282613,0 2.228803,-0.86209 2.859596,-1.72417 0.210264,0.96722 0.862084,1.59801 2.081617,1.59801 0.714899,0 1.59801,-0.12616 2.18675,-1.93443 -0.168211,0.0631 -0.399502,0.0631 -0.546687,0.0631 -0.588741,0 -0.756952,-0.33643 -0.756952,-0.77798 0,-0.23129 0.04205,-0.46258 0.105132,-0.7149 z m -4.520683,7.14899 c -0.06308,0.23129 -0.105132,0.46258 -0.105132,0.67285 -0.420529,0.58874 -0.88311,1.07234 -1.366718,1.07234 -0.525661,0 -1.219534,-0.23129 -1.219534,-1.49287 0,-2.8596 1.261587,-6.2028 2.838569,-6.2028 0.29437,0 0.693873,0.0841 1.030296,0.37847 z" />
        <path
           inkscape:connector-curvature="0"
           id="path2752"
           style="font-style:normal;font-variant:normal;font-weight:normal;font-stretch:normal;font-size:71.0923996px;font-family:'Lobster 1.3';-inkscape-font-specification:'Lobster 1.3, ';writing-mode:lr-tb;fill:#100f0d;fill-opacity:1;fill-rule:nonzero;stroke:none;stroke-width:0.29576212"
           d="m 62.441055,119.90614 -3.343202,15.76983 3.174994,-0.75695 1.093373,-5.15148 c 0.630793,0.3995 1.282614,0.63079 1.976487,0.63079 2.144695,0 3.95297,-1.53493 4.604788,-6.05561 0.08411,-0.54669 0.12616,-1.0303 0.12616,-1.47185 0,-2.16572 -1.030296,-2.9437 -3.217046,-2.9437 -0.525661,0 -1.030296,0.14718 -1.471851,0.37847 l 0.08411,-0.3995 z m 2.565228,8.93624 c -0.336423,0 -0.862084,0 -1.36672,-0.37848 l 1.513903,-7.06488 c 0.399504,-0.27335 0.799007,-0.44156 1.198508,-0.44156 0.672847,0 1.177482,0.25232 1.177482,1.51391 0,0.50463 -0.08411,1.1985 -0.273346,2.12367 -0.693873,3.3432 -1.198505,4.24734 -2.249827,4.24734 z" />
        <path
           inkscape:connector-curvature="0"
           id="path2754"
           style="font-style:normal;font-variant:normal;font-weight:normal;font-stretch:normal;font-size:71.0923996px;font-family:'Lobster 1.3';-inkscape-font-specification:'Lobster 1.3, ';writing-mode:lr-tb;fill:#100f0d;fill-opacity:1;fill-rule:nonzero;stroke:none;stroke-width:0.29576212"
           d="m 80.22902,128.48493 c -0.168212,0.0631 -0.399504,0.0631 -0.54669,0.0631 -0.630792,0 -0.799004,-0.27335 -0.799004,-0.6308 0,-0.27334 0.105132,-0.58874 0.168212,-0.86208 l 0.862084,-4.01605 c 0.04205,-0.14718 0.04205,-0.3154 0.04205,-0.46258 0,-1.38775 -1.24056,-2.67036 -2.418039,-2.67036 -0.925165,0 -1.892381,0.50464 -2.754465,1.13543 l 1.135428,-5.34072 -3.111912,0.42053 -3.048834,14.29798 h 3.027809 l 1.808271,-8.47365 c 0.42053,-0.3154 0.820033,-0.46259 1.324666,-0.46259 0.651821,0 0.94619,0.6308 0.94619,1.30364 0,0.16821 -0.02103,0.33643 -0.04205,0.48361 l -0.799004,3.78476 c -0.08411,0.35745 -0.12616,0.7149 -0.12616,1.05132 0,1.32467 0.651821,2.31291 2.144698,2.31291 0.714899,0 1.598009,-0.12616 2.18675,-1.93443 z" />
        <path
           inkscape:connector-curvature="0"
           id="path2756"
           style="font-style:normal;font-variant:normal;font-weight:normal;font-stretch:normal;font-size:71.0923996px;font-family:'Lobster 1.3';-inkscape-font-specification:'Lobster 1.3, ';writing-mode:lr-tb;fill:#100f0d;fill-opacity:1;fill-rule:nonzero;stroke:none;stroke-width:0.29576212"
           d="m 83.361957,117.13065 c 0,0.92516 0.735924,1.66109 1.661089,1.66109 0.925161,0 1.682114,-0.73593 1.682114,-1.66109 0,-0.92516 -0.756953,-1.68211 -1.682114,-1.68211 -0.925165,0 -1.661089,0.75695 -1.661089,1.68211 z m 2.733436,2.77549 h -3.006779 l -1.513906,7.14899 c -0.08411,0.35745 -0.126157,0.7149 -0.126157,1.05132 0,1.32467 0.651818,2.31291 2.144695,2.31291 0.714898,0 1.598011,-0.12616 2.18675,-1.93443 -0.168212,0.0631 -0.399501,0.0631 -0.546687,0.0631 -0.588741,0 -0.756953,-0.33643 -0.756953,-0.77798 0,-0.23129 0.04205,-0.46258 0.105135,-0.7149 z" />
        <path
           inkscape:connector-curvature="0"
           id="path2758"
           style="font-style:normal;font-variant:normal;font-weight:normal;font-stretch:normal;font-size:71.0923996px;font-family:'Lobster 1.3';-inkscape-font-specification:'Lobster 1.3, ';writing-mode:lr-tb;fill:#100f0d;fill-opacity:1;fill-rule:nonzero;stroke:none;stroke-width:0.29576212"
           d="m 89.985283,130.41936 c 2.649331,0 4.205288,-1.19851 4.205288,-3.02781 -0.82003,0.7149 -1.808272,1.24056 -2.9437,1.24056 -1.282614,0 -1.513905,-1.21953 -1.513905,-2.24983 0,-2.27085 1.135427,-5.69816 2.901648,-5.69816 0.462583,0 0.777978,0.21026 0.777978,0.7149 0,0.16821 -0.04205,0.35745 -0.105131,0.58874 h 1.198508 c 0.08411,-0.27335 0.105131,-0.46258 0.105131,-0.69387 0,-1.15646 -1.177479,-1.45083 -2.312907,-1.45083 -4.07913,0 -5.403795,4.0581 -5.403795,7.12796 0,2.48112 1.345691,3.44834 3.090885,3.44834 z" />
        <g
           aria-label="CREATIVE"
           transform="matrix(0.29576211,0,0,0.29576211,46.902093,114.51821)"
           style="font-variant:normal;font-weight:normal;font-size:32.94480133px;font-family:Langdon;-inkscape-font-specification:Langdon;writing-mode:lr-tb;fill:#100f0d;fill-opacity:1;fill-rule:nonzero;stroke:none"
           id="text354">
          <path
             d="m 13.705037,-16.373566 v -1.811964 c 0,-2.339081 -1.877853,-5.172334 -6.0288983,-5.172334 -4.5463826,0 -6.2595122,2.833253 -6.2595122,5.172334 v 13.3426442 c 0,2.3061361 1.7131296,5.13938901 6.2595122,5.13938901 4.1510453,0 6.0288983,-2.83325291 6.0288983,-5.17233381 V -6.6877947 H 9.5539924 v 1.8119641 c 0,0.6918408 -0.6918408,1.8778537 -1.8778537,1.8778537 -1.4495712,0 -2.0755225,-1.1860129 -2.0755225,-1.8778537 V -18.18553 c 0,-0.691841 0.6259513,-1.877854 2.0755225,-1.877854 1.1860129,0 1.8778537,1.186013 1.8778537,1.877854 v 1.811964 z"
             id="path2761"
             inkscape:connector-curvature="0" />
          <path
             d="m 30.045658,0 -4.348714,-9.8504956 c 1.976688,-0.9883444 3.459204,-3.1956454 3.459204,-6.6219054 0,-3.689817 -1.877853,-6.58896 -5.831229,-6.58896 H 16.439455 V 0 h 4.085156 v -9.290434 c 0.164724,0 0.75773,0 1.317792,0 L 25.762834,0 Z m -9.521047,-19.766881 h 2.668528 c 1.614296,0 2.042578,1.449571 2.042578,3.29448 0,3.36037 -0.724786,3.689818 -3.393314,3.689818 h -1.317792 z"
             id="path2763"
             inkscape:connector-curvature="0" />
          <path
             d="m 41.971675,-19.766881 v -3.29448 h -9.94933 V 0 h 10.410557 v -3.2944801 h -6.292457 v -7.5114149 h 4.18399 v -3.29448 h -4.18399 v -5.666506 z"
             id="path2765"
             inkscape:connector-curvature="0" />
          <path
             d="m 53.568246,0 h 4.1181 l -4.744051,-23.061361 h -4.1181 L 44.080143,0 h 3.887487 l 0.790675,-5.3700026 h 3.986321 z m -4.1181,-8.6974276 1.284847,-8.2691454 h 0.09883 l 1.251903,8.2691454 z"
             id="path2767"
             inkscape:connector-curvature="0" />
          <path
             d="M 68.854632,-23.061361 H 56.269718 v 3.261535 h 4.216935 V 0 h 4.1181 v -19.799826 h 4.249879 z"
             id="path2769"
             inkscape:connector-curvature="0" />
          <path
             d="m 75.376918,-23.061361 h -4.1181 V 0 h 4.1181 z"
             id="path2771"
             inkscape:connector-curvature="0" />
          <path
             d="M 92.573569,-23.061361 H 88.19191 l -2.997977,17.0654072 h -0.06589 L 82.195957,-23.061361 H 77.781353 L 82.887797,0 h 4.381659 z"
             id="path2773"
             inkscape:connector-curvature="0" />
          <path
             d="m 104.92787,-19.766881 v -3.29448 H 94.978537 V 0 h 10.410553 v -3.2944801 h -6.292453 v -7.5114149 h 4.183993 v -3.29448 h -4.183993 v -5.666506 z"
             id="path2775"
             inkscape:connector-curvature="0" />
        </g>
        <g
           aria-label="DESIGN"
           transform="matrix(0.29576211,0,0,0.29576211,52.334651,142.24659)"
           style="font-variant:normal;font-weight:normal;font-size:20.50049973px;font-family:'Bree Serif';-inkscape-font-specification:BreeSerif-Regular;writing-mode:lr-tb;fill:#100f0d;fill-opacity:1;fill-rule:nonzero;stroke:none"
           id="text358">
          <path
             d="M 0.69701699,0 H 6.5191589 c 3.3005805,0 6.2936531,-1.927047 6.2936531,-7.2981779 0,-4.2641041 -2.48056,-6.3346541 -6.3961556,-6.3346541 H 0.79951949 v 1.742542 l 1.16852851,0.0615 v 9.532732 c 0,0.41001 -0.246006,0.533013 -0.5945145,0.574014 L 0.69701699,-1.660542 Z M 4.4691089,-11.644284 h 1.8245445 c 2.214054,0 3.9975976,1.025025 3.9975976,4.7151151 0,3.2800799 -1.4350351,4.9611209 -3.7310911,4.9611209 h -2.091051 z"
             id="path2778"
             inkscape:connector-curvature="0" />
          <path
             d="m 24.067587,0 v -3.649089 l -2.091051,-0.1435034 v 1.0250249 c 0,0.41001 -0.041,0.656016 -0.574014,0.656016 h -3.300581 v -3.8335934 h 4.735616 v -2.091051 h -4.735616 v -3.5055851 h 3.034074 c 0.553514,0 0.594515,0.246006 0.594515,0.635515 v 0.82002 l 2.091051,-0.143503 v -3.403083 h -9.389229 v 1.742542 l 1.168529,0.0615 v 9.532732 c 0,0.41001 -0.246006,0.533013 -0.594515,0.574014 L 14.32985,-1.660542 V 0 Z"
             id="path2780"
             inkscape:connector-curvature="0" />
          <path
             d="m 29.828228,-1.845045 c -0.553513,0 -1.086526,-0.061501 -1.476036,-0.1845045 -0.369009,-0.123003 -0.43051,-0.287007 -0.43051,-0.6765165 v -1.2505304 l -2.091051,0.1435035 v 3.23907891 C 27.060661,0 28.331692,0.2665065 29.971732,0.2665065 c 2.829068,0 4.96112,-1.476036 4.96112,-4.1821019 0,-2.6445645 -1.968048,-3.485085 -3.833593,-4.0795995 -1.537537,-0.4715115 -2.726566,-0.82002 -2.726566,-2.0910511 0,-1.271031 0.943023,-1.763043 2.152552,-1.763043 0.41001,0 0.943023,0.041 1.332532,0.164004 0.369009,0.123003 0.430511,0.287007 0.430511,0.676517 v 1.1890286 l 2.091051,-0.1435035 v -3.0750751 c -1.23003,-0.574014 -2.501061,-0.84052 -3.854094,-0.84052 -2.829069,0 -4.756116,1.517037 -4.756116,4.0180976 0,2.624064 1.886046,3.444084 3.915596,3.9975975 1.435034,0.3895095 2.603563,0.7585185 2.603563,2.05005 0,1.5375374 -1.107027,1.9680479 -2.46006,1.9680479 z"
             id="path2782"
             inkscape:connector-curvature="0" />
          <path
             d="m 37.515914,-2.3985585 c 0,0.5125125 -0.205005,0.6355155 -0.594514,0.6765165 L 36.244883,-1.66054 V 0 h 4.961121 v -1.7425425 l -1.168528,-0.061501 v -9.4507305 c 0,-0.492012 0.246006,-0.615015 0.594514,-0.656016 l 0.676517,-0.0615 v -1.66054 h -4.961121 v 1.742543 l 1.168528,0.0615 z"
             id="path2784"
             inkscape:connector-curvature="0" />
          <path
             d="m 53.444122,-4.7766164 c 0,-0.492012 0.164004,-0.6355155 0.594514,-0.6765165 l 0.471512,-0.041001 v -1.64004 h -5.104625 v 1.7425425 l 1.578539,0.061501 h 0.0205 v 3.0545744 c -0.41001,0.2665065 -1.373533,0.492012 -2.173053,0.492012 -2.501061,0 -3.567087,-1.9475475 -3.567087,-5.1661259 0,-3.0545751 1.20953,-4.8996201 3.956597,-4.8996201 0.594514,0 1.127527,0.041 1.517037,0.164004 0.369009,0.123003 0.43051,0.287007 0.43051,0.676517 v 1.5990391 l 2.091051,-0.1435035 v -3.4850846 c -1.23003,-0.574014 -2.644564,-0.84052 -4.018098,-0.84052 -2.952072,0 -6.539659,1.783543 -6.539659,7.0931721 0,4.7561159 2.316556,7.0316714 6.027147,7.0316714 1.906546,0 3.587587,-0.533013 4.715115,-1.312032 z"
             id="path2786"
             inkscape:connector-curvature="0" />
          <path
             d="m 55.678675,0 h 5.022623 v -1.7425425 l -1.332533,-0.061501 v -7.7491889 h 0.041 L 65.334411,0 h 2.398558 v -11.275275 c 0,-0.43051 0.184505,-0.615015 0.492012,-0.635515 l 0.738018,-0.0615 v -1.66054 h -5.002122 v 1.742542 l 1.353033,0.0615 v 7.6056851 h -0.041 l -5.801641,-9.4097291 h -3.69009 v 1.742542 l 1.168528,0.0615 v 9.532732 c 0,0.41001 -0.184504,0.5535135 -0.533013,0.574014 l -0.738018,0.061502 z"
             id="path2788"
             inkscape:connector-curvature="0" />
        </g>
        <path
           inkscape:connector-curvature="0"
           id="path360"
           style="fill:none;stroke:#100f0d;stroke-width:1.47881055;stroke-linecap:butt;stroke-linejoin:miter;stroke-miterlimit:10;stroke-dasharray:none;stroke-opacity:1"
           d="M 57.550741,133.73456 H 43.736876" />
        <path
           inkscape:connector-curvature="0"
           id="path362"
           style="fill:none;stroke:#100f0d;stroke-width:1.47881055;stroke-linecap:butt;stroke-linejoin:miter;stroke-miterlimit:10;stroke-dasharray:none;stroke-opacity:1"
           d="M 79.888175,133.73456 H 65.11752" />
        <path
           inkscape:connector-curvature="0"
           id="path364"
           style="fill:none;stroke:#100f0d;stroke-width:1.47881055;stroke-linecap:butt;stroke-linejoin:miter;stroke-miterlimit:10;stroke-dasharray:none;stroke-opacity:1"
           d="M 86.763757,110.78283 H 79.980748" />
        <path
           inkscape:connector-curvature="0"
           id="path366"
           style="fill:none;stroke:#100f0d;stroke-width:1.47881055;stroke-linecap:butt;stroke-linejoin:miter;stroke-miterlimit:10;stroke-dasharray:none;stroke-opacity:1"
           d="M 45.005105,110.78283 H 38.222096" />
        <path
           inkscape:connector-curvature="0"
           id="path406"
           style="fill:#100f0d;fill-opacity:1;fill-rule:nonzero;stroke:none;stroke-width:0.02957621"
           d="m 49.05113,138.1707 0.47736,1.44716 1.523767,0.007 -1.229188,0.90089 0.464642,1.4516 -1.236581,-0.89054 -1.236581,0.89054 0.464641,-1.4516 -1.229187,-0.90089 1.524359,-0.007 0.476768,-1.44716" />
        <path
           inkscape:connector-curvature="0"
           id="path408"
           style="fill:#100f0d;fill-opacity:1;fill-rule:nonzero;stroke:none;stroke-width:0.02957621"
           d="m 76.167487,138.1707 0.47736,1.44716 1.52347,0.007 -1.228891,0.90089 0.464347,1.4516 -1.236286,-0.89054 -1.236581,0.89054 0.464642,-1.4516 -1.229187,-0.90089 1.524063,-0.007 0.477063,-1.44716" />
        <path
           inkscape:connector-curvature="0"
           id="path410"
           style="fill:none;stroke:#100f0d;stroke-width:0.59152418;stroke-linecap:butt;stroke-linejoin:miter;stroke-miterlimit:10;stroke-dasharray:none;stroke-opacity:1"
           d="m 44.689822,137.46056 -3.559201,-1.60982" />
        <path
           inkscape:connector-curvature="0"
           id="path412"
           style="fill:none;stroke:#100f0d;stroke-width:0.59152418;stroke-linecap:butt;stroke-linejoin:miter;stroke-miterlimit:10;stroke-dasharray:none;stroke-opacity:1"
           d="m 44.689822,140.75625 -3.559201,1.61012" />
        <path
           inkscape:connector-curvature="0"
           id="path414"
           style="fill:none;stroke:#100f0d;stroke-width:0.59152418;stroke-linecap:butt;stroke-linejoin:miter;stroke-miterlimit:10;stroke-dasharray:none;stroke-opacity:1"
           d="M 44.57684,139.07041 H 38.458409" />
        <path
           inkscape:connector-curvature="0"
           id="path416"
           style="fill:#100f0d;fill-opacity:1;fill-rule:nonzero;stroke:none;stroke-width:0.02957621"
           d="m 42.328161,137.73296 c 0,0.21266 -0.172428,0.38479 -0.385082,0.38479 -0.212357,0 -0.384787,-0.17213 -0.384787,-0.38479 0,-0.21295 0.17243,-0.38507 0.384787,-0.38507 0.212654,0 0.385082,0.17212 0.385082,0.38507" />
        <path
           inkscape:connector-curvature="0"
           id="path418"
           style="fill:#100f0d;fill-opacity:1;fill-rule:nonzero;stroke:none;stroke-width:0.02957621"
           d="m 42.328161,140.44776 c 0,0.21236 -0.172428,0.38449 -0.385082,0.38449 -0.212357,0 -0.384787,-0.17213 -0.384787,-0.38449 0,-0.21294 0.17243,-0.38508 0.384787,-0.38508 0.212654,0 0.385082,0.17214 0.385082,0.38508" />
        <path
           inkscape:connector-curvature="0"
           id="path420"
           style="fill:none;stroke:#100f0d;stroke-width:0.59152418;stroke-linecap:butt;stroke-linejoin:miter;stroke-miterlimit:10;stroke-dasharray:none;stroke-opacity:1"
           d="m 80.199908,137.46056 3.559201,-1.60982" />
        <path
           inkscape:connector-curvature="0"
           id="path422"
           style="fill:none;stroke:#100f0d;stroke-width:0.59152418;stroke-linecap:butt;stroke-linejoin:miter;stroke-miterlimit:10;stroke-dasharray:none;stroke-opacity:1"
           d="m 80.199908,140.75625 3.559201,1.61012" />
        <path
           inkscape:connector-curvature="0"
           id="path424"
           style="fill:none;stroke:#100f0d;stroke-width:0.59152418;stroke-linecap:butt;stroke-linejoin:miter;stroke-miterlimit:10;stroke-dasharray:none;stroke-opacity:1"
           d="m 80.312593,139.07041 h 6.118432" />
        <path
           inkscape:connector-curvature="0"
           id="path426"
           style="fill:#100f0d;fill-opacity:1;fill-rule:nonzero;stroke:none;stroke-width:0.02957621"
           d="m 82.561569,137.73296 c 0,0.21266 0.172134,0.38479 0.385083,0.38479 0.212356,0 0.384489,-0.17213 0.384489,-0.38479 0,-0.21295 -0.172133,-0.38507 -0.384489,-0.38507 -0.212949,0 -0.385083,0.17212 -0.385083,0.38507" />
        <path
           inkscape:connector-curvature="0"
           id="path428"
           style="fill:#100f0d;fill-opacity:1;fill-rule:nonzero;stroke:none;stroke-width:0.02957621"
           d="m 82.561569,140.44776 c 0,0.21236 0.172134,0.38449 0.385083,0.38449 0.212356,0 0.384489,-0.17213 0.384489,-0.38449 0,-0.21294 -0.172133,-0.38508 -0.384489,-0.38508 -0.212949,0 -0.385083,0.17214 -0.385083,0.38508" />
      </g>
      <text
         transform="translate(0.65205666,0.40090429)"
         x="0.52916664"
         id="text854"
         style="font-style:normal;font-weight:normal;font-size:7.44822598px;line-height:125%;font-family:Sans;letter-spacing:0px;word-spacing:0px;fill:#000000;fill-opacity:1;stroke:none;stroke-width:0.18620564px;stroke-linecap:butt;stroke-linejoin:miter;stroke-opacity:1"
         xml:space="preserve"><textPath
           id="textPath946"
           xlink:href="#path918"><tspan
   id="tspan852"
   style="font-style:normal;font-variant:normal;font-weight:normal;font-stretch:normal;font-family:Langdon;-inkscape-font-specification:Langdon;stroke-width:0.18620564px">upload your</tspan></textPath></text>
      <path
         sodipodi:nodetypes="cc"
         inkscape:connector-curvature="0"
         id="path918"
         d="m 44.812117,112.09681 c 18.019754,-15.642151 34.412722,0 34.412722,0"
         style="fill:none;fill-rule:evenodd;stroke:none;stroke-width:0.24775897px;stroke-linecap:butt;stroke-linejoin:miter;stroke-opacity:1" />
    </g>
  </g>
</svg>
